<svg xmlns="http://www.w3.org/2000/svg" width="139" height="114" viewBox="0 0 139 114" fill="none"><g opacity="0.3"><path d="M27.7578 110.115C27.2604 110.239 26.8873 110.364 26.3899 110.612C18.8043 113.224 1.27042 117.577 0.0268783 104.891C-0.22183 101.906 1.27042 98.6721 3.88185 97.1796C5.3741 96.309 7.2394 96.0603 8.98036 95.8115C14.9493 95.0652 21.167 94.4433 27.0117 95.9358C28.877 96.4334 30.6179 97.0553 32.1102 98.299C33.6024 99.5428 34.5973 101.284 34.5973 103.15C34.5973 105.14 33.3537 106.881 31.7371 108.125C30.6179 108.995 29.25 109.617 27.7578 110.115Z" fill="white"></path><path d="M100.256 109.369C99.6345 109.369 98.8884 109.369 98.2666 109.369C92.9194 109.493 87.4478 109.742 82.1006 110.239C77.7482 110.612 74.0176 106.259 74.0176 102.155C74.0176 92.2046 92.2976 90.712 99.0127 92.5777C101.002 93.0752 102.495 94.1946 103.489 95.6871C109.334 98.4234 108.339 109.12 100.256 109.369Z" fill="white"></path><path d="M60.3386 92.7023C55.4888 94.568 48.4006 95.6874 43.4265 94.1948C39.0741 92.8267 36.214 88.7222 36.8357 84.1203C37.4575 80.2646 40.5663 76.5333 44.67 76.1602H44.7944C52.0069 74.6676 72.0279 74.5433 67.1781 87.1053C66.1833 89.5929 63.5718 91.4585 60.3386 92.7023Z" fill="white"></path><path d="M35.7162 65.0904C34.97 65.4635 34.0996 65.8366 33.2291 66.0854C25.8922 68.4485 10.9697 67.3292 11.3428 56.6328C11.4672 53.0258 14.3273 49.9164 17.5605 48.4238C24.4 45.4388 41.1877 45.8119 42.0582 56.1352C42.3069 58.4984 41.1877 60.9859 39.4468 62.6028C38.452 63.5979 37.0841 64.4685 35.7162 65.0904Z" fill="white"></path><path d="M96.4008 63.8465L96.2765 63.9709C90.4318 68.1997 85.9551 69.0703 78.7426 68.3241C76.0068 68.0753 73.7684 66.9559 72.1518 65.4634C69.5404 63.9709 67.4264 61.1102 67.1777 58.3739C66.0585 48.7969 75.7581 47.8019 82.8462 46.4337C88.4422 45.4387 97.7687 46.3094 100.878 51.9063C103.738 57.0058 100.505 60.7371 96.4008 63.8465Z" fill="white"></path><path d="M68.1729 38.8469C67.6755 39.0957 67.3024 39.3444 66.805 39.4688C59.2194 42.827 42.4316 44.817 40.3176 33.3743C39.6959 30.2649 40.9394 26.9067 43.4265 25.0411C45.2918 23.6729 47.6545 23.2998 49.8929 22.9266C54.6183 22.3048 59.4681 22.3048 64.3179 22.678C66.0589 22.8023 67.9242 23.1754 69.4164 24.1704C71.7792 25.7873 72.5253 29.0211 72.2766 31.8818C72.1522 33.6231 71.6548 35.3644 70.5356 36.7325C70.0382 37.7275 69.1677 38.3494 68.1729 38.8469Z" fill="white"></path><path d="M130.35 44.6921C130.101 44.6921 129.853 44.6921 129.604 44.6921C123.013 44.1946 113.562 44.0703 112.443 36.2345C111.2 27.4037 122.391 24.7918 129.853 25.2893C133.708 25.5381 137.811 27.7769 138.682 31.5082C138.806 31.757 138.806 32.1301 138.806 32.3789C139.552 38.1002 138.433 44.8165 130.35 44.6921Z" fill="white"></path><path d="M106.722 18.2002C100.256 22.6778 81.8513 22.4291 82.3488 11.2351C82.9705 -2.94385 109.334 -4.06326 110.204 10.9864C110.453 14.2202 109.085 16.5833 106.722 18.2002Z" fill="white"></path></g></svg>