<svg xmlns="http://www.w3.org/2000/svg" width="147" height="142" viewBox="0 0 147 142" fill="none"><path d="M87.8895 100.585C83.0414 83.8124 74.9991 67.953 64.3901 54.0903C62.5078 50.4392 60.1123 47.0163 57.1463 43.9357C56.0626 42.7948 54.8078 41.8249 53.4389 40.9692C44.8832 31.7274 35.415 25.338 21.2127 30.5294C10.6607 34.4087 3.58809 46.3888 1.81993 57.2279C-0.461575 70.9765 -0.34751 85.3527 0.79324 99.2154C1.99103 113.763 3.07475 130.307 18.0186 137.438C30.4528 143.371 46.7655 142.002 59.713 138.522C73.0598 134.928 88.4599 125.914 89.1444 110.169C89.3155 107.202 88.9162 104.007 87.8895 100.585Z" fill="#E0E0E0"></path><path d="M138.766 41.7678C135.743 32.469 126.845 24.1399 116.465 24.7675C115.438 24.8245 114.411 24.9386 113.385 24.9957C112.358 20.2607 110.019 15.8109 106.369 12.1598C88.174 -5.98149 55.0352 -4.49824 44.1981 21.1734C44.141 21.2875 44.084 21.4587 44.027 21.5728C43.4566 22.4285 42.9432 23.2842 42.4299 24.254C38.6654 23.9117 34.8439 24.4252 31.3646 25.8514C15.5082 32.526 15.4512 53.3486 28.0564 63.1038C34.958 68.4664 41.5173 67.7247 49.7307 67.6677C51.8981 67.6677 54.0085 67.8959 56.176 68.1811C68.2109 69.6073 80.1888 71.2047 92.2807 72.1174C110.362 73.4866 147.436 68.5805 138.766 41.7678Z" fill="#418D5B"></path><path d="M65.1884 119.125C65.0173 117.3 64.7892 115.93 63.8766 114.333C63.4203 113.42 62.6788 112.565 61.9373 111.88C60.5684 110.682 59.0284 109.769 57.3743 109.313C56.1765 108.742 54.8646 108.4 53.5528 108.457C50.929 108.571 48.4764 109.541 46.5942 111.424C45.2823 112.793 44.1986 114.561 43.6853 116.387C43.172 118.212 43.172 120.323 43.7994 122.149C44.6549 124.488 44.9972 125.058 46.6512 126.998C47.5638 128.025 48.7046 128.709 49.9594 129.109C51.1572 129.736 52.5261 130.021 53.895 130.021C56.4047 130.021 59.4276 128.88 61.1388 126.998C61.8802 126.199 62.5077 125.286 63.021 124.316C63.1921 124.145 63.3062 123.917 63.4203 123.746C64.504 122.548 65.3595 120.78 65.1884 119.125Z" fill="#ED9936"></path><path d="M145.441 95.5643C144.015 90.4299 140.478 85.4097 135.744 82.7855C128.671 78.8491 120.116 78.9062 113.557 83.9264C111.788 85.2956 111.617 85.3526 110.762 86.4365C109.222 87.8628 107.91 89.5171 106.883 91.2856C106.142 92.2555 105.457 93.2823 104.887 94.4233C95.2475 89.5171 82.7563 92.883 76.9384 102.638C76.1399 103.95 75.5695 105.319 75.1132 106.746C71.748 114.105 73.1169 123.347 79.334 129.451C87.9467 138.008 101.465 137.266 110.02 129.109C112.416 126.827 114.127 124.031 115.154 121.008C120.401 123.233 126.333 123.29 131.809 121.236C142.475 117.927 148.406 106.289 145.441 95.5643Z" fill="#ED9936"></path></svg>