<svg xmlns="http://www.w3.org/2000/svg" width="188" height="148" viewBox="0 0 188 148" fill="none"><path d="M131.352 57.7845C131.221 51.6411 131.156 45.4976 131.287 39.2889C131.352 33.995 129.98 30.2698 125.079 27.6556C116.454 23.146 106.195 24.7799 96.916 25.3028C86.0036 25.9563 75.0259 26.2831 64.0482 26.2177C55.0962 26.1524 40.7206 22.2311 35.4278 32.1651C24.254 53.275 28.7627 79.6133 28.1746 102.619C27.9133 112.553 25.953 124.055 28.632 133.793C30.7884 141.57 37.0614 146.995 44.4452 147.387C56.9258 148.041 69.4064 147.649 81.8217 147.518C92.538 147.387 103.973 149.348 114.232 145.557C146.446 133.597 131.809 82.7504 131.352 57.7845Z" fill="#F3EAE2"></path><path d="M187.743 59.0262C187.155 42.622 185.587 26.4138 183.3 10.1402C181.862 -0.0552887 171.995 -0.251356 163.762 0.663624C137.102 3.73534 110.442 0.72898 83.7162 0.0100671C78.3581 -0.120644 72.9999 0.990378 69.21 5.17314C65.8775 8.83306 64.5052 13.408 64.9626 17.9829C66.2695 32.0997 62.2836 46.478 65.2894 60.4641C67.315 69.8099 75.679 74.3848 84.6964 74.5155C90.512 74.5809 96.3929 74.3195 102.208 74.2541C125.993 73.862 149.844 73.5352 173.629 73.2084C181.013 73.0777 188.004 66.8036 187.743 59.0262Z" fill="#8CB13B"></path><path d="M62.8718 77.3259C58.5592 67.1304 51.5674 55.8239 38.7601 57.5885C38.6947 57.5885 38.564 57.5885 38.4987 57.6538C29.6773 56.1507 20.3332 56.6081 12.688 61.8366C3.27854 68.3722 0.860823 78.8291 0.142044 89.6128C-0.446047 98.3051 0.795483 107.586 3.80128 115.755C5.56556 120.657 7.52586 124.97 11.1851 128.695C15.7591 133.336 22.0975 134.97 28.4358 135.166C37.4532 135.427 48.1695 134.251 56.0761 129.545C65.4202 124.055 68.2953 113.402 68.23 103.272C68.2953 94.253 66.335 85.4954 62.8718 77.3259Z" fill="#ED9936"></path><path d="M101.882 66.9341C101.817 64.8427 101.751 62.7514 101.686 60.7253C101.621 59.6143 101.621 58.5032 101.555 57.4575C101.49 56.3465 101.555 55.1048 101.228 54.0591C100.771 52.4252 98.2227 52.2945 97.7653 54.0591C97.3079 55.889 97.5693 57.9804 97.5039 59.8757C97.5039 61.771 97.4385 63.6663 97.4385 65.5617C97.3732 69.2869 97.3732 73.0122 97.3079 76.7375C97.2425 84.2533 97.1118 91.7692 96.9158 99.2851C96.8505 101.377 96.7851 103.468 96.7198 105.494C96.6544 106.605 96.6544 107.716 96.5891 108.762C96.5237 110.003 96.3277 111.311 97.1772 112.422C97.896 113.467 99.5949 113.99 100.51 112.879C101.359 111.899 101.49 110.984 101.555 109.742C101.555 108.762 101.621 107.781 101.621 106.801C101.686 104.906 101.751 103.01 101.751 101.115C101.817 97.3245 101.882 93.5339 101.947 89.7432C102.209 82.0966 102.143 74.5154 101.882 66.9341Z" fill="#418D5B"></path><path d="M115.735 121.114C115.735 120.199 115.735 119.284 115.735 118.369C115.735 116.604 115.735 114.84 115.735 113.075C115.735 109.611 115.735 106.147 115.669 102.618C115.604 95.6252 115.604 88.5668 115.473 81.5737C115.473 79.5477 115.408 77.5217 115.408 75.561C115.408 73.4696 115.408 71.4436 115.016 69.3522C114.885 68.764 114.297 68.1758 113.709 68.0451C113.382 67.9798 113.121 67.9798 112.794 68.0451H112.729C112.141 68.1758 111.553 68.764 111.422 69.3522C110.769 72.8161 111.095 76.5413 111.03 80.1359C111.03 83.5998 111.03 87.0636 111.03 90.5928C111.03 97.5859 111.095 104.644 111.095 111.637C111.095 113.663 111.095 115.689 111.161 117.65C111.161 118.63 111.161 119.611 111.161 120.591C111.161 121.767 111.03 122.944 111.618 124.055C112.402 125.427 114.493 125.427 115.277 124.055C115.8 123.075 115.735 122.16 115.735 121.114Z" fill="#418D5B"></path><path d="M125.863 73.6657C125.798 65.8231 125.536 58.0457 125.144 50.203C125.014 47.9809 124.948 45.8242 124.818 43.6021C124.752 42.4911 124.687 41.38 124.621 40.3343C124.556 39.0272 124.621 37.7201 123.576 36.7398C122.726 35.8901 121.55 36.2169 120.897 37.0665C120.178 37.9815 120.374 39.0272 120.439 40.1382C120.505 41.1186 120.57 42.0989 120.636 43.0792C120.766 45.0399 120.897 47.0006 120.962 48.9612C121.158 52.8826 121.354 56.8039 121.485 60.6599C121.746 68.5026 121.877 76.28 121.877 84.1226C121.877 86.2794 121.812 88.3708 121.877 90.5275C121.877 92.8149 121.812 95.1024 122.465 97.3245C122.857 98.6316 124.556 98.5009 125.014 97.3245C125.667 95.4292 125.732 93.4685 125.798 91.4425C125.863 89.4818 125.928 87.5211 125.928 85.5604C125.928 81.5737 125.928 77.5871 125.863 73.6657Z" fill="#418D5B"></path></svg>