<svg xmlns="http://www.w3.org/2000/svg" width="181" height="190" viewBox="0 0 181 190" fill="none"><path d="M149.733 37.8578C148.738 31.5798 142.308 25.9908 136.414 24.5361C99.1352 15.2722 57.7997 5.93166 19.2965 15.655C14.474 16.8799 11.3356 20.1721 9.80464 24.0767C4.29324 31.1204 5.05871 41.4562 4.44634 49.9545C3.52777 61.8981 2.6092 73.8417 2.4561 85.8618C2.30301 105.308 3.52776 124.755 6.20691 144.049C8.35024 159.667 16.7704 170.539 33.3812 172.529C53.1304 174.903 73.2623 175.592 93.088 176.128C109.163 176.511 132.816 177.965 145.37 165.562C156.699 154.461 155.091 131.952 155.78 117.405C157.005 90.9149 154.02 64.0418 149.733 37.8578Z" fill="#F1E892"></path><path d="M176.295 84.2541C176.372 70.8558 168.717 59.0654 157.388 53.6295C152.489 51.0264 146.825 49.5717 140.93 49.7249C131.056 49.9545 122.483 54.0889 116.588 60.4435C110.312 66.109 106.408 74.1479 106.943 83.2588C107.097 85.8619 107.556 88.3884 108.245 90.7618C109.24 106.993 121.947 121.693 139.093 121.769C145.37 121.769 150.882 120.008 155.474 116.946C168.105 111.969 176.219 98.1117 176.295 84.2541Z" fill="#ED9936"></path><path d="M180.123 29.5126C181.042 18.1049 172.851 5.08945 161.981 1.26137C150.959 -2.64326 140.089 2.94573 134.118 12.1331C131.439 9.83627 128.224 8.61129 124.78 8.38161C124.014 7.9988 123.249 7.69254 122.407 7.38629C118.426 5.01289 113.757 3.86448 109.011 4.6301C97.2225 6.6207 88.7258 18.4112 90.8691 30.2016C91.0988 31.6563 91.558 33.111 92.0173 34.4125C91.8642 35.4078 91.7877 36.4031 91.7877 37.3984C88.4962 37.7812 85.2046 38.3937 82.0662 39.6187C72.3447 43.4468 65.3024 52.4045 63.6183 62.6637C60.7861 80.1197 75.8659 101.71 95.2323 97.882C104.188 96.1211 110.542 89.2305 113.833 80.9619C114.905 78.2057 115.9 74.837 116.512 71.7745C117.431 71.9276 118.503 72.0808 118.732 72.1573C126.234 73.5354 133.736 75.2963 140.931 71.698C149.122 67.5636 151.265 59.8309 149.887 52.2513C150.882 51.6388 151.801 50.9498 152.719 50.1842C153.332 50.2607 154.021 50.3373 154.709 50.4139C167.34 51.1029 178.975 42.6812 180.123 29.5126Z" fill="#8CB13B"></path><path d="M63.9248 102.552C64.0779 101.327 63.6951 99.8728 62.9297 98.8009C62.7 98.4181 62.3938 98.1884 62.0877 98.0353C62.0111 97.9587 61.9345 97.9587 61.858 97.8821C61.7814 97.8821 61.7815 97.8821 61.7049 97.8056C61.5518 97.729 61.4753 97.729 61.3222 97.729H61.2456H61.1691H61.0925C61.0925 97.729 61.0925 97.729 61.016 97.729C60.4036 97.729 59.7912 97.8821 59.3319 98.3415C58.4134 99.3368 57.6479 100.409 57.2651 101.787C57.1121 102.476 56.959 103.165 56.959 103.854C56.959 104.313 57.0355 104.696 57.1121 105.156C57.1886 105.768 57.5713 106.304 58.0306 106.763C58.1072 106.84 58.1837 106.916 58.3368 106.993C58.5665 107.376 58.9492 107.682 59.3319 107.759C59.9443 107.912 60.5567 107.682 61.016 107.299C61.3987 106.993 61.7815 106.534 62.0877 106.074C63.2359 105.232 63.7717 103.931 63.9248 102.552Z" fill="#2E2D29"></path><path d="M53.8204 123.683C53.8204 123.607 53.8204 123.454 53.8204 123.377C53.8204 123.301 53.8204 123.147 53.8204 123.071C53.8204 122.611 53.7438 122.152 53.5907 121.769C53.3611 121.157 53.0549 120.621 52.4425 120.315C51.9067 120.008 51.1412 119.855 50.5288 120.085C49.9165 120.315 49.3806 120.621 49.0744 121.233C48.9979 121.463 48.9214 121.616 48.8448 121.846C48.7683 122.152 48.7683 122.458 48.7683 122.765C48.8448 123.301 48.8448 123.836 48.8448 124.449C48.7683 124.602 48.7683 124.755 48.6917 124.908C48.6152 125.368 48.4621 125.827 48.4621 126.286C48.3855 126.899 48.2324 127.588 48.2324 128.277C48.2324 129.502 49.151 130.497 50.3758 130.727C51.1412 130.804 51.9067 130.574 52.4425 130.038C52.9018 129.732 53.208 129.349 53.3611 128.813C53.7438 127.818 53.9735 126.669 53.9735 125.597C53.9735 124.832 53.8969 124.296 53.8204 123.683Z" fill="#2E2D29"></path><path d="M39.6588 112.582C39.6588 112.276 39.6588 112.046 39.5822 111.74C39.5822 111.051 39.3526 110.438 38.8168 109.979C38.3575 109.519 37.6686 109.213 37.0562 109.213C36.3673 109.213 35.7549 109.443 35.2956 109.979C35.1425 110.132 35.066 110.285 34.9129 110.515C34.7598 110.744 34.6832 110.974 34.6067 111.28C34.4536 112.276 34.2239 113.347 33.9943 114.343C33.9943 114.343 33.9943 114.419 33.9178 114.419C33.8412 114.802 33.7646 115.185 33.7646 115.568C33.7646 115.951 33.8412 116.257 33.9943 116.563C34.0709 116.869 34.3005 117.176 34.5301 117.405L35.066 117.788C35.3722 117.941 35.6783 118.094 35.9845 118.094C36.2142 118.171 36.4438 118.171 36.6735 118.094C36.9796 118.094 37.2858 117.941 37.592 117.788C38.1278 117.482 38.6637 116.946 38.7402 116.257C38.8168 115.797 38.8933 115.338 39.0464 114.879C39.123 114.802 39.1995 114.726 39.1995 114.572C39.1995 114.496 39.2761 114.419 39.2761 114.419C39.3526 114.19 39.4291 114.037 39.5057 113.807C39.5057 113.654 39.5822 113.501 39.5822 113.347C39.6588 113.041 39.6588 112.812 39.6588 112.582Z" fill="#2E2D29"></path><path d="M32.8462 142.517C32.6931 142.135 32.54 141.828 32.3104 141.522C32.3104 141.446 32.3104 141.446 32.2338 141.369C31.9276 140.986 31.6215 140.603 31.1622 140.45C30.7029 140.297 30.1671 140.221 29.7078 140.374C29.1719 140.527 28.5596 140.91 28.3299 141.446C28.3299 141.522 28.2534 141.599 28.2534 141.599C27.9472 141.905 27.7176 142.211 27.4114 142.594C27.3348 142.747 27.1817 142.9 27.1052 143.13C26.8755 143.666 26.7224 143.972 26.6459 144.585C26.6459 144.891 26.5693 145.121 26.5693 145.427C26.5693 145.733 26.6459 146.039 26.6459 146.269C26.7224 146.728 27.1052 147.188 27.4879 147.494V147.571C27.5645 147.8 27.641 147.953 27.7175 148.183C27.8706 148.336 27.9472 148.489 28.1003 148.719C28.2534 148.872 28.4065 148.949 28.6361 149.102C28.9423 149.255 29.2485 149.408 29.5547 149.408C29.7843 149.485 30.014 149.485 30.2436 149.408C30.4732 149.408 30.7029 149.331 30.856 149.255C31.3918 149.025 31.7746 148.719 32.0808 148.183C33.229 146.499 33.4586 144.355 32.8462 142.517Z" fill="#2E2D29"></path><path d="M44.2516 132.641C44.0985 131.952 43.7923 131.263 43.4096 130.65C43.1799 130.268 42.8737 130.038 42.491 129.808C42.1082 129.655 41.649 129.579 41.1897 129.732C40.3477 130.038 39.7353 130.727 39.7353 131.646C39.7353 131.952 39.7353 132.182 39.7353 132.488C39.6587 133.024 39.5822 133.56 39.5056 134.096C39.4291 134.555 39.3525 135.091 39.3525 135.627C39.3525 136.316 39.7353 136.852 40.118 137.388C40.4242 137.847 40.8069 138.153 41.3428 138.23C41.802 138.307 42.4145 138.153 42.7972 137.771C42.8737 137.618 43.0268 137.541 43.1034 137.388C43.2565 137.158 43.4861 137.005 43.5627 136.775C43.7158 136.469 43.7923 136.163 43.7923 135.857C43.8688 135.78 43.8689 135.78 43.8689 135.703C44.0985 135.244 44.2516 134.785 44.3281 134.249C44.4047 133.636 44.4047 133.177 44.2516 132.641Z" fill="#2E2D29"></path><path d="M47.5427 153.083C47.5427 151.858 47.2365 150.709 46.7007 149.638C46.6242 149.484 46.4711 149.331 46.3945 149.178C46.2414 148.949 46.0118 148.795 45.7056 148.719C45.3229 148.566 44.787 148.489 44.3278 148.642C43.4092 148.949 42.7968 149.714 42.7968 150.709C42.7203 151.628 42.6437 152.547 42.5671 153.542C42.5671 154.002 42.4906 154.461 42.4906 154.92C42.4906 155.15 42.4906 155.38 42.4141 155.533C42.4141 155.992 42.4906 156.375 42.5671 156.758C42.7968 157.677 43.7919 158.442 44.787 158.442C45.7821 158.366 46.7007 157.753 47.0069 156.758C47.0835 156.452 47.16 156.069 47.16 155.686C47.4662 154.92 47.5427 154.002 47.5427 153.083Z" fill="#2E2D29"></path><path d="M24.962 129.961C25.0385 129.808 25.1151 129.655 25.1151 129.579V129.502C25.1916 129.272 25.1916 129.119 25.1916 128.89C25.1916 128.354 25.1151 127.818 25.1151 127.282C25.0385 126.669 24.8854 126.057 24.4261 125.597C24.3496 125.521 24.273 125.521 24.1965 125.444C24.1965 125.215 24.1199 124.985 24.1199 124.755C24.0434 124.679 24.0434 124.526 23.9669 124.449C23.8903 124.296 23.7372 124.143 23.5841 124.066C23.3545 123.913 23.0483 123.76 22.7421 123.76C22.5125 123.76 22.2828 123.836 22.0532 123.99C21.747 124.143 21.4408 124.526 21.4408 124.832C21.4408 125.061 21.3643 125.291 21.3643 125.444C21.2877 125.521 21.2112 125.521 21.1346 125.597C20.9815 125.751 20.905 125.904 20.7519 126.057C20.5222 126.44 20.4457 126.822 20.4457 127.205C20.4457 127.741 20.3691 128.277 20.3691 128.813C20.3691 129.196 20.5222 129.655 20.7519 130.038C20.7519 130.038 20.7519 130.115 20.8284 130.191C20.905 130.344 20.9815 130.421 21.1346 130.574C21.5939 131.033 22.2828 131.34 22.8952 131.263C23.5076 131.263 24.1965 131.033 24.6558 130.574C24.7323 130.421 24.8854 130.344 24.962 130.191L25.0385 130.115C24.962 130.038 24.962 129.961 24.962 129.961Z" fill="#2E2D29"></path><path d="M12.7907 154.538C12.8672 154.078 12.9438 153.619 12.9438 153.16C12.9438 152.394 12.9438 151.628 12.9438 150.786C12.9438 150.174 12.6376 149.485 12.2548 149.102C11.8721 148.719 11.1832 148.336 10.5708 148.413C9.26953 148.489 8.19787 149.485 8.19787 150.786C8.19787 151.552 8.19787 152.317 8.19787 153.16C8.19787 153.389 8.19787 153.619 8.19787 153.849C8.12132 154.308 8.04476 154.767 8.04476 155.15C8.04476 155.227 8.04478 155.227 7.96823 155.303C7.89169 155.763 7.96822 156.145 8.04476 156.528C8.2744 157.37 9.11642 157.906 9.95843 157.83C10.3412 157.753 10.7239 157.6 10.9536 157.37C11.0301 157.217 11.1066 157.141 11.2597 156.988C11.3363 156.911 11.3363 156.758 11.4128 156.681C11.6425 156.528 11.8721 156.375 12.0252 156.145L12.561 155.303C12.7141 155.074 12.7907 154.844 12.8672 154.538C12.7907 154.614 12.7907 154.614 12.7907 154.538C12.7907 154.614 12.7907 154.538 12.7907 154.538Z" fill="#2E2D29"></path><path d="M28.9424 162.883C28.9424 162.806 28.8658 162.73 28.8658 162.653C28.7893 162.194 28.6362 161.658 28.2535 161.352C27.8707 161.045 27.488 160.816 27.0287 160.739C26.5694 160.663 26.0336 160.739 25.6508 160.969C25.1915 161.275 24.8854 161.658 24.6557 162.27C24.4261 162.959 24.1964 163.649 24.1199 164.414C24.0433 164.95 23.9668 165.486 23.9668 165.945C23.9668 166.099 23.9668 166.328 23.9668 166.481C23.9668 166.788 24.0433 167.247 24.1199 167.477C24.3495 168.166 24.8088 168.702 25.4977 168.855C26.1101 169.008 26.7225 168.855 27.2583 168.472C27.6411 168.166 27.8707 167.859 27.9472 167.4C27.9472 167.4 27.9472 167.4 27.9472 167.323V167.247C27.9472 167.094 28.0238 166.941 28.0238 166.864C28.1003 166.558 28.1004 166.175 28.1769 165.869V165.792C28.5596 165.409 28.7127 164.873 28.8658 164.338C28.9424 164.108 28.9424 163.955 29.0189 163.725C29.0189 163.572 29.0189 163.266 28.9424 162.883Z" fill="#2E2D29"></path><path d="M46.3186 173.525C46.1655 172.989 45.8593 172.606 45.4766 172.3C45.3235 172.147 45.1704 172.07 45.0173 171.917C45.0173 171.917 45.0173 171.917 44.9407 171.917C44.9407 171.917 44.9407 171.917 44.9407 171.84C44.8642 171.764 44.8642 171.611 44.7876 171.534C44.7111 171.381 44.558 171.228 44.4049 171.075C44.3283 170.998 44.2518 170.922 44.0987 170.922C43.6394 170.692 43.027 170.692 42.6443 171.151C42.5678 171.228 42.4912 171.381 42.4147 171.534C42.4147 171.611 42.3381 171.687 42.3381 171.764C42.2616 171.917 42.2616 171.994 42.2616 172.223C42.2616 172.3 42.2616 172.376 42.2616 172.453C42.185 172.53 42.185 172.53 42.1085 172.606C41.8788 172.912 41.6492 173.448 41.6492 173.831C41.5727 174.214 41.5727 174.597 41.6492 174.903C41.7258 175.133 41.7257 175.286 41.8023 175.515C41.8023 175.669 41.8023 175.898 41.8023 176.051C41.8023 176.281 41.7257 176.587 41.7257 176.817C41.6492 177.353 42.0319 178.119 42.4147 178.501C42.7974 178.884 43.2567 179.114 43.7925 179.19C44.3284 179.267 44.8642 179.19 45.3235 178.884C45.8593 178.578 46.3186 178.042 46.3951 177.429C46.7013 176.128 46.7013 174.75 46.3186 173.525Z" fill="#2E2D29"></path><path d="M44.0993 170.845C44.0226 170.845 44.0993 170.845 44.0993 170.845C43.8693 170.769 43.8693 170.769 44.0993 170.845Z" fill="#2E2D29"></path><path d="M12.3319 173.142C12.1023 172.836 11.8727 172.53 11.4899 172.3H11.4134C11.3369 172.147 11.3368 171.917 11.2603 171.764C11.1837 171.381 10.8776 171.075 10.5714 170.845C10.2652 170.692 9.80591 170.615 9.42317 170.692C8.88735 170.845 8.58115 171.228 8.42805 171.764H8.35152C8.35152 171.917 8.27497 172.147 8.27497 172.3C8.27497 172.223 8.35152 172.147 8.35152 172.07C8.19843 172.453 8.12186 172.759 8.04532 173.142C8.04532 173.219 8.04532 173.295 8.04532 173.295C7.81568 173.601 7.6626 173.908 7.58606 174.29C7.27987 175.133 7.43296 176.204 7.89224 176.97C8.04533 177.123 8.12188 177.276 8.27497 177.429C8.50461 177.659 8.73425 177.812 9.04044 177.889C9.19353 177.965 9.42317 178.042 9.65281 178.042C9.95899 178.119 10.2652 178.119 10.5714 177.965C10.9541 177.812 11.2603 177.659 11.5665 177.353C11.7961 177.123 11.9492 176.894 12.0258 176.587C12.1789 176.281 12.2554 176.051 12.2554 175.669C12.2554 175.592 12.2554 175.515 12.2554 175.439C12.3319 175.362 12.3319 175.286 12.4085 175.209C12.5616 174.979 12.6381 174.673 12.6381 174.367C12.7147 174.137 12.7147 173.984 12.6381 173.754C12.5616 173.678 12.485 173.372 12.3319 173.142Z" fill="#2E2D29"></path><path d="M31.6979 185.622C31.6979 185.392 31.6979 185.239 31.6979 185.009L31.6213 183.784C31.6213 183.401 31.4682 182.942 31.3151 182.559C31.3151 182.559 31.3151 182.483 31.2386 182.483C31.162 182.33 31.0855 182.253 30.9324 182.1C30.5497 181.717 29.8607 181.411 29.2483 181.411C28.636 181.411 28.0236 181.64 27.5643 182.1C27.1816 182.559 26.8754 183.095 26.8754 183.784C26.8754 184.167 26.7988 184.626 26.7988 185.009C26.7988 185.239 26.7988 185.392 26.7988 185.622C26.7988 185.928 26.7988 186.158 26.8754 186.464C26.8754 186.617 26.9519 186.694 27.0285 186.847C27.0285 187 27.0285 187.229 27.0285 187.383C27.0285 187.765 27.105 188.148 27.3347 188.531C27.3347 188.608 27.4112 188.608 27.4878 188.684C27.5643 188.837 27.6409 188.99 27.794 189.067C28.1767 189.45 28.7125 189.679 29.2483 189.679C29.7842 189.679 30.32 189.526 30.7027 189.067C30.8558 188.914 31.0089 188.684 31.162 188.454C31.3917 188.072 31.4682 187.689 31.4682 187.306C31.4682 187.153 31.4682 186.923 31.4682 186.77C31.5448 186.617 31.6213 186.54 31.6213 186.387C31.6979 186.158 31.6979 185.928 31.6979 185.622Z" fill="#2E2D29"></path><path d="M5.51867 133.789C5.44212 133.789 5.44212 133.789 5.51867 133.789C5.51867 133.253 5.21248 132.794 4.67665 132.564C4.06427 132.335 3.29881 132.488 2.99263 133.1V133.177C2.3037 133.33 1.69133 133.789 1.46168 134.555C1.38514 134.861 1.30858 135.244 1.23203 135.55C0.466559 136.01 -0.0692745 136.775 0.00727252 137.694C0.00727252 138.383 0.313479 138.996 0.696214 139.531C0.696214 139.608 0.696214 139.685 0.696214 139.685C0.772762 140.221 0.849299 140.756 1.30858 141.063C1.61477 141.369 1.9975 141.522 2.45679 141.599C3.4519 141.752 4.37046 141.139 4.67665 140.144C4.75319 139.685 4.82975 139.302 4.9063 138.842C4.9063 138.766 4.98283 138.766 4.98283 138.689C5.28902 138.077 5.36557 137.541 5.44212 136.852C5.51866 136.316 5.44211 135.703 5.36556 135.167C5.36556 134.785 5.44212 134.249 5.51867 133.789Z" fill="#2E2D29"></path><path d="M62.8523 164.72C62.9288 163.802 62.4695 162.959 62.3164 162.041C62.2399 161.581 61.7806 161.045 61.3979 160.816C61.3213 160.816 61.2448 160.739 61.1682 160.739C61.1682 160.739 61.1682 160.739 61.0916 160.663L61.0151 160.586C60.9386 160.509 60.7855 160.433 60.6324 160.433C60.4793 160.433 60.4027 160.433 60.2496 160.433C60.1731 160.433 60.0966 160.433 60.02 160.433C60.02 160.433 60.02 160.433 59.9434 160.433C59.8669 160.433 59.7904 160.509 59.7138 160.509C59.6373 160.586 59.6372 160.586 59.5607 160.586C59.178 160.739 58.7953 161.045 58.6422 161.428C58.5656 161.581 58.489 161.734 58.4125 161.888C58.2594 162.806 57.8002 163.648 57.8767 164.567C57.8767 165.027 57.9532 165.409 58.1829 165.792V165.869C58.2594 166.481 58.4125 166.941 58.7952 167.4C59.178 167.783 59.7903 168.089 60.3262 168.012C60.862 168.012 61.4744 167.783 61.8571 167.4C62.2399 167.017 62.5461 166.405 62.4695 165.869C62.4695 165.792 62.4695 165.792 62.4695 165.716C62.6992 165.562 62.8523 165.103 62.8523 164.72Z" fill="#2E2D29"></path></svg>