<svg xmlns="http://www.w3.org/2000/svg" width="145" height="79" viewBox="0 0 145 79" fill="none"><path d="M31.0164 55.5505C30.7775 53.0017 30.459 51.0901 29.1848 48.8599C28.5477 47.5855 27.5125 46.3907 26.4772 45.4349C24.5659 43.7622 22.4158 42.4878 20.1063 41.8506C18.434 41.0541 16.6023 40.5762 14.7707 40.6558C11.1075 40.8151 7.68315 42.1692 5.05517 44.7977C3.22354 46.7093 1.71046 49.1785 0.993733 51.7273C0.277011 54.2761 0.277021 57.2232 1.15301 59.772C2.34755 63.0377 2.82537 63.8342 5.13481 66.5423C6.40898 67.976 8.00169 68.9318 9.75367 69.4894C11.426 70.3656 13.3373 70.7638 15.2486 70.7638C18.7525 70.7638 22.9732 69.1708 25.3623 66.5423C26.3975 65.4272 27.2736 64.1528 27.9903 62.7987C28.2292 62.5598 28.3884 62.2412 28.5477 62.0022C30.0608 60.3296 31.2554 57.8604 31.0164 55.5505Z" fill="#8CB13B"></path><path d="M143.064 22.6549C141.073 15.4863 136.136 8.47706 129.526 4.81312C119.651 -0.682775 107.706 -0.603124 98.5474 6.40614C96.0787 8.31776 95.8397 8.3974 94.6452 9.91076C92.495 11.902 90.6634 14.2119 89.23 16.6811C88.1947 18.0351 87.2391 19.4689 86.4427 21.0619C72.9843 14.2119 55.544 18.9113 47.4212 32.5316C46.3063 34.3635 45.5099 36.2752 44.8728 38.2664C40.1743 48.5414 42.0856 61.4448 50.7659 69.9674C62.7909 81.915 81.6646 80.8796 93.61 69.4895C96.9547 66.3035 99.3437 62.4006 100.777 58.1791C108.104 61.2855 116.386 61.3651 124.031 58.4977C138.923 53.878 147.205 37.6292 143.064 22.6549Z" fill="#8CB13B"></path></svg>