<svg xmlns="http://www.w3.org/2000/svg" width="170" height="101" viewBox="0 0 170 101" fill="none"><path d="M167.218 58.3163C162.997 45.3332 150.574 33.7042 136.08 34.5804C134.647 34.66 133.213 34.8193 131.78 34.899C130.346 28.288 127.081 22.0752 121.985 16.9776C96.5808 -8.35136 50.3124 -6.28044 35.1816 29.5624C35.1019 29.7217 35.0223 29.9606 34.9427 30.1199C34.1463 31.3147 33.4296 32.5094 32.7128 33.8635C27.4569 33.3856 22.1213 34.1025 17.2635 36.0937C-4.87528 45.4129 -4.95491 74.4854 12.6446 88.1056C22.2806 95.5928 31.4387 94.5573 42.9063 94.4777C45.9324 94.4777 48.879 94.7963 51.9051 95.1945C68.7083 97.1858 85.4318 99.416 102.315 100.69C127.559 102.602 179.323 95.7521 167.218 58.3163Z" fill="#F1E892"></path></svg>