<svg xmlns="http://www.w3.org/2000/svg" width="79" height="237" viewBox="0 0 79 237" fill="none"><g opacity="0.3"><path d="M14.2949 81.8596C14.1206 76.2815 13.9463 70.7033 13.772 65.2994C13.5978 62.336 13.5977 59.3726 13.4234 56.5836C13.2492 53.6201 13.4234 50.3082 12.552 47.5191C11.332 43.1612 4.53485 42.8125 3.31484 47.5191C2.09484 52.4 2.79205 57.9781 2.61776 63.0333C2.61776 68.0886 2.44341 73.1438 2.44341 78.199C2.26912 88.1351 2.2691 98.0712 2.09481 108.007C1.92053 128.054 1.572 148.1 1.04914 168.147C0.874851 173.725 0.700585 179.303 0.526299 184.707C0.352012 187.671 0.351991 190.634 0.177704 193.423C0.00341773 196.735 -0.519399 200.222 1.74633 203.185C3.66348 205.974 8.19489 207.369 10.6349 204.405C12.9006 201.79 13.2492 199.35 13.4234 196.038C13.4234 193.423 13.5978 190.808 13.5978 188.194C13.7721 183.138 13.9464 178.083 13.9464 173.028C14.1207 162.918 14.2949 152.807 14.4692 142.697C15.1664 122.301 14.992 102.081 14.2949 81.8596Z" fill="white"></path><path d="M51.2437 226.369C51.2437 223.929 51.2437 221.488 51.2437 219.048C51.2437 214.341 51.2437 209.635 51.2437 204.928C51.2437 195.689 51.2437 186.451 51.0694 177.037C50.8951 158.385 50.8951 139.559 50.5466 120.907C50.5466 115.503 50.3722 110.099 50.3722 104.87C50.3722 99.2915 50.3723 93.8877 49.3266 88.3095C48.978 86.7406 47.4094 85.1718 45.8409 84.8231C44.9695 84.6488 44.2723 84.6488 43.4009 84.8231H43.2266C41.6581 85.1718 40.0895 86.7406 39.7409 88.3095C37.9981 97.5483 38.8694 107.484 38.6952 117.072C38.6952 126.311 38.6952 135.55 38.6952 144.963C38.6952 163.615 38.8695 182.441 38.8695 201.093C38.8695 206.497 38.8695 211.901 39.0437 217.131C39.0437 219.745 39.0437 222.36 39.0437 224.975C39.0437 228.113 38.6952 231.25 40.2638 234.214C42.3552 237.874 47.9322 237.874 50.0236 234.214C51.4179 231.599 51.2437 229.158 51.2437 226.369Z" fill="white"></path><path d="M78.2575 99.8149C78.0832 78.8968 77.3861 58.1529 76.3404 37.2347C75.9918 31.3079 75.8175 25.5554 75.4689 19.6286C75.2947 16.6652 75.1204 13.7018 74.9461 10.9127C74.7718 7.42633 74.946 3.93996 72.1575 1.32519C69.8918 -0.940944 66.7547 -0.0693531 65.0118 2.19678C63.0947 4.63724 63.6175 7.42624 63.7918 10.3896C63.9661 13.0044 64.1403 15.6192 64.3146 18.234C64.6632 23.4635 65.0118 28.693 65.186 33.9226C65.7089 44.3817 66.2317 54.8408 66.5803 65.1256C67.2774 86.0438 67.6261 106.788 67.6261 127.706C67.6261 133.458 67.4518 139.036 67.6261 144.789C67.6261 150.89 67.4517 156.991 69.1946 162.918C70.2403 166.404 74.7718 166.056 75.9918 162.918C77.7346 157.863 77.9089 152.633 78.0832 147.229C78.2575 142 78.4318 136.77 78.4318 131.541C78.4318 120.907 78.4318 110.274 78.2575 99.8149Z" fill="white"></path></g></svg>