<svg xmlns="http://www.w3.org/2000/svg" width="246" height="259" viewBox="0 0 246 259" fill="none"><path d="M203.683 51.4982C202.33 42.9582 193.583 35.3554 185.565 33.3767C134.855 20.7749 78.6262 8.06897 26.2501 21.2956C19.69 22.962 15.4208 27.4403 13.3383 32.7518C5.84111 42.3333 6.88238 56.3931 6.04936 67.9534C4.79983 84.2003 3.5503 100.447 3.34204 116.798C3.13379 143.252 4.79982 169.705 8.44428 195.95C11.3598 217.196 22.8139 231.985 45.4095 234.693C72.2744 237.921 99.6599 238.858 126.629 239.587C148.496 240.108 180.671 242.087 197.748 225.215C213.159 210.114 210.972 179.495 211.909 159.707C213.575 123.672 209.514 87.1164 203.683 51.4982Z" fill="#F1E892"></path><path d="M239.815 114.611C239.919 96.3854 229.507 80.3468 214.096 72.9524C207.432 69.4114 199.726 67.4326 191.708 67.6409C178.276 67.9534 166.614 73.5773 158.596 82.2215C150.057 89.9283 144.747 100.864 145.476 113.257C145.684 116.798 146.309 120.235 147.246 123.464C148.6 145.543 165.885 165.539 189.209 165.643C197.748 165.643 205.245 163.248 211.493 159.082C228.674 152.312 239.711 133.462 239.815 114.611Z" fill="#ED9936"></path><path d="M245.022 40.1461C246.271 24.6282 235.13 6.92319 220.343 1.71585C205.349 -3.59564 190.563 4.00709 182.441 16.5047C178.797 13.3803 174.423 11.714 169.738 11.4015C168.696 10.8808 167.655 10.4642 166.51 10.0476C161.095 6.81904 154.743 5.25687 148.287 6.29834C132.252 9.00615 120.694 25.0448 123.609 41.0834C123.921 43.0622 124.546 45.041 125.171 46.8115C124.963 48.1654 124.859 49.5193 124.859 50.8732C120.381 51.3939 115.904 52.2271 111.634 53.8934C98.4102 59.1008 88.8305 71.286 86.5397 85.2416C82.687 108.987 103.2 138.357 129.544 133.149C141.727 130.754 150.37 121.381 154.847 110.133C156.305 106.383 157.659 101.801 158.492 97.6351C159.741 97.8434 161.199 98.0517 161.511 98.1558C171.716 100.03 181.92 102.426 191.708 97.531C202.85 91.907 205.766 81.3882 203.891 71.0777C205.245 70.2445 206.494 69.3072 207.744 68.2657C208.577 68.3699 209.514 68.474 210.451 68.5781C227.632 69.5155 243.46 58.0593 245.022 40.1461Z" fill="#8CB13B"></path><path d="M86.956 139.502C87.1643 137.836 86.6437 135.857 85.6024 134.399C85.29 133.878 84.8735 133.566 84.457 133.358C84.3529 133.253 84.2487 133.253 84.1446 133.149C84.0405 133.149 84.0405 133.149 83.9364 133.045C83.7281 132.941 83.624 132.941 83.4157 132.941H83.3116H83.2075H83.1033C83.1033 132.941 83.1033 132.941 82.9992 132.941C82.1662 132.941 81.3332 133.149 80.7084 133.774C79.4589 135.128 78.4176 136.586 77.8969 138.461C77.6887 139.398 77.4805 140.335 77.4805 141.273C77.4805 141.898 77.5846 142.418 77.6887 143.043C77.7929 143.876 78.3134 144.605 78.9382 145.23C79.0423 145.334 79.1465 145.439 79.3547 145.543C79.6671 146.063 80.1878 146.48 80.7084 146.584C81.5414 146.793 82.3744 146.48 82.9992 145.959C83.5198 145.543 84.0405 144.918 84.457 144.293C86.0189 143.147 86.7478 141.377 86.956 139.502Z" fill="#2E2D29"></path><path d="M73.2117 168.247C73.2117 168.142 73.2117 167.934 73.2117 167.83C73.2117 167.726 73.2117 167.517 73.2117 167.413C73.2117 166.788 73.1075 166.164 72.8993 165.643C72.5869 164.81 72.1704 164.081 71.3374 163.664C70.6085 163.247 69.5672 163.039 68.7342 163.352C67.9012 163.664 67.1723 164.081 66.7558 164.914C66.6516 165.226 66.5475 165.435 66.4434 165.747C66.3393 166.164 66.3393 166.58 66.3393 166.997C66.4434 167.726 66.4434 168.455 66.4434 169.288C66.3393 169.496 66.3393 169.705 66.2351 169.913C66.131 170.538 65.9228 171.163 65.9228 171.788C65.8186 172.621 65.6104 173.558 65.6104 174.495C65.6104 176.162 66.8599 177.516 68.5259 177.828C69.5672 177.932 70.6085 177.62 71.3374 176.891C71.9621 176.474 72.3787 175.953 72.5869 175.224C73.1075 173.87 73.4199 172.308 73.4199 170.85C73.4199 169.809 73.3158 169.08 73.2117 168.247Z" fill="#2E2D29"></path><path d="M53.948 153.145C53.948 152.729 53.948 152.416 53.8439 152C53.8439 151.063 53.5315 150.229 52.8026 149.604C52.1778 148.98 51.2407 148.563 50.4077 148.563C49.4705 148.563 48.6375 148.875 48.0127 149.604C47.8045 149.813 47.7003 150.021 47.4921 150.334C47.2838 150.646 47.1797 150.958 47.0756 151.375C46.8673 152.729 46.555 154.187 46.2426 155.541C46.2426 155.541 46.2426 155.645 46.1384 155.645C46.0343 156.166 45.9302 156.686 45.9302 157.207C45.9302 157.728 46.0343 158.145 46.2426 158.561C46.3467 158.978 46.6591 159.394 46.9715 159.707L47.7004 160.227C48.1169 160.436 48.5334 160.644 48.9499 160.644C49.2622 160.748 49.5747 160.748 49.887 160.644C50.3035 160.644 50.72 160.436 51.1365 160.227C51.8654 159.811 52.5943 159.082 52.6985 158.145C52.8026 157.52 52.9067 156.895 53.115 156.27C53.2191 156.166 53.3232 156.062 53.3232 155.853C53.3232 155.749 53.4274 155.645 53.4274 155.645C53.5315 155.333 53.6356 155.124 53.7397 154.812C53.7397 154.604 53.8439 154.395 53.8439 154.187C53.948 153.77 53.948 153.458 53.948 153.145Z" fill="#2E2D29"></path><path d="M44.6806 193.866C44.4723 193.345 44.264 192.929 43.9517 192.512C43.9517 192.408 43.9516 192.408 43.8475 192.304C43.431 191.783 43.0145 191.262 42.3897 191.054C41.765 190.846 41.0361 190.742 40.4113 190.95C39.6824 191.158 38.8494 191.679 38.537 192.408C38.537 192.512 38.4329 192.616 38.4329 192.616C38.0164 193.033 37.704 193.45 37.2875 193.97C37.1834 194.179 36.9751 194.387 36.871 194.699C36.5586 195.428 36.3504 195.845 36.2462 196.678C36.2462 197.095 36.1421 197.407 36.1421 197.824C36.1421 198.24 36.2462 198.657 36.2462 198.969C36.3504 199.594 36.871 200.219 37.3916 200.636V200.74C37.4958 201.052 37.5999 201.261 37.704 201.573C37.9123 201.781 38.0164 201.99 38.2246 202.302C38.4329 202.51 38.6412 202.614 38.9535 202.823C39.3701 203.031 39.7865 203.239 40.2031 203.239C40.5154 203.343 40.8278 203.343 41.1402 203.239C41.4526 203.239 41.765 203.135 41.9732 203.031C42.7021 202.719 43.2228 202.302 43.6393 201.573C45.2012 199.282 45.5136 196.366 44.6806 193.866Z" fill="#2E2D29"></path><path d="M60.1954 180.431C59.9872 179.494 59.5707 178.557 59.05 177.724C58.7376 177.203 58.3211 176.89 57.8005 176.578C57.2798 176.37 56.6551 176.266 56.0303 176.474C54.8849 176.89 54.0519 177.828 54.0519 179.078C54.0519 179.494 54.0519 179.807 54.0519 180.223C53.9478 180.952 53.8436 181.681 53.7395 182.41C53.6354 183.035 53.5312 183.764 53.5312 184.493C53.5312 185.431 54.0519 186.16 54.5725 186.889C54.989 187.513 55.5097 187.93 56.2386 188.034C56.8633 188.138 57.6964 187.93 58.217 187.409C58.3211 187.201 58.5294 187.097 58.6335 186.889C58.8418 186.576 59.1542 186.368 59.2583 186.055C59.4666 185.639 59.5707 185.222 59.5707 184.806C59.6748 184.702 59.6748 184.702 59.6748 184.597C59.9872 183.972 60.1955 183.348 60.2996 182.619C60.4037 181.785 60.4037 181.16 60.1954 180.431Z" fill="#2E2D29"></path><path d="M64.6728 208.239C64.6728 206.572 64.2563 205.01 63.5274 203.552C63.4233 203.344 63.215 203.135 63.1109 202.927C62.9027 202.615 62.5903 202.406 62.1738 202.302C61.6531 202.094 60.9243 201.99 60.2995 202.198C59.05 202.615 58.2169 203.656 58.2169 205.01C58.1128 206.26 58.0087 207.51 57.9045 208.863C57.9045 209.488 57.8004 210.113 57.8004 210.738C57.8004 211.05 57.8004 211.363 57.6963 211.571C57.6963 212.196 57.8004 212.717 57.9045 213.238C58.2169 214.487 59.5706 215.529 60.9242 215.529C62.2779 215.425 63.5274 214.592 63.944 213.238C64.0481 212.821 64.1522 212.3 64.1522 211.78C64.5687 210.738 64.6728 209.488 64.6728 208.239Z" fill="#2E2D29"></path><path d="M33.9556 176.787C34.0598 176.578 34.1639 176.37 34.1639 176.266V176.162C34.268 175.849 34.268 175.641 34.268 175.328C34.268 174.599 34.1639 173.87 34.1639 173.141C34.0598 172.308 33.8515 171.475 33.2268 170.85C33.1226 170.746 33.0185 170.746 32.9144 170.642C32.9144 170.329 32.8102 170.017 32.8102 169.705C32.7061 169.6 32.7061 169.392 32.602 169.288C32.4979 169.08 32.2896 168.871 32.0814 168.767C31.769 168.559 31.3525 168.351 30.9359 168.351C30.6236 168.351 30.3112 168.455 29.9988 168.663C29.5823 168.871 29.1658 169.392 29.1658 169.809C29.1658 170.121 29.0617 170.434 29.0617 170.642C28.9576 170.746 28.8534 170.746 28.7493 170.85C28.541 171.058 28.4369 171.267 28.2286 171.475C27.9163 171.996 27.8121 172.516 27.8121 173.037C27.8121 173.766 27.708 174.495 27.708 175.224C27.708 175.745 27.9163 176.37 28.2286 176.891C28.2286 176.891 28.2286 176.995 28.3328 177.099C28.4369 177.307 28.541 177.411 28.7493 177.62C29.374 178.245 30.3112 178.661 31.1442 178.557C31.9772 178.557 32.9144 178.245 33.5391 177.62C33.6432 177.411 33.8515 177.307 33.9556 177.099L34.0598 176.995C33.9556 176.891 33.9556 176.787 33.9556 176.787Z" fill="#2E2D29"></path><path d="M17.399 210.217C17.5031 209.592 17.6073 208.967 17.6073 208.343C17.6073 207.301 17.6073 206.26 17.6073 205.114C17.6073 204.281 17.1908 203.344 16.6701 202.823C16.1495 202.302 15.2124 201.781 14.3793 201.885C12.6092 201.99 11.1514 203.344 11.1514 205.114C11.1514 206.155 11.1514 207.197 11.1514 208.343C11.1514 208.655 11.1514 208.967 11.1514 209.28C11.0473 209.905 10.9431 210.53 10.9431 211.05C10.9431 211.155 10.9432 211.155 10.839 211.259C10.7349 211.884 10.839 212.404 10.9431 212.925C11.2555 214.071 12.4009 214.8 13.5463 214.696C14.0669 214.591 14.5876 214.383 14.9 214.071C15.0041 213.862 15.1082 213.758 15.3165 213.55C15.4206 213.446 15.4206 213.237 15.5247 213.133C15.8371 212.925 16.1495 212.717 16.3577 212.404L17.0867 211.259C17.2949 210.946 17.399 210.634 17.5032 210.217C17.399 210.321 17.399 210.321 17.399 210.217C17.399 210.217 17.399 210.321 17.399 210.217Z" fill="#2E2D29"></path><path d="M39.3699 221.57C39.3699 221.466 39.2657 221.362 39.2657 221.257C39.1616 220.633 38.9534 219.904 38.4327 219.487C37.9121 219.07 37.3914 218.758 36.7667 218.654C36.1419 218.55 35.413 218.654 34.8924 218.966C34.2676 219.383 33.8511 219.904 33.5387 220.737C33.2263 221.674 32.9139 222.611 32.8098 223.653C32.7057 224.382 32.6016 225.111 32.6016 225.736C32.6016 225.944 32.6016 226.257 32.6016 226.465C32.6016 226.881 32.7057 227.506 32.8098 227.819C33.1222 228.756 33.747 229.485 34.6841 229.693C35.5171 229.902 36.3501 229.693 37.079 229.173C37.5997 228.756 37.9121 228.339 38.0162 227.715C38.0162 227.715 38.0162 227.715 38.0162 227.61V227.506C38.0162 227.298 38.1203 227.09 38.1203 226.986C38.2244 226.569 38.2245 226.048 38.3286 225.632V225.528C38.8492 225.007 39.0575 224.278 39.2657 223.549C39.3699 223.236 39.3699 223.028 39.474 222.716C39.474 222.507 39.474 222.091 39.3699 221.57Z" fill="#2E2D29"></path><path d="M63.007 236.046C62.7987 235.317 62.3823 234.796 61.8616 234.38C61.6534 234.171 61.4451 234.067 61.2368 233.859C61.2368 233.859 61.2368 233.859 61.1327 233.859C61.1327 233.859 61.1327 233.859 61.1327 233.755C61.0286 233.651 61.0286 233.442 60.9244 233.338C60.8203 233.13 60.6121 232.922 60.4038 232.713C60.2997 232.609 60.1956 232.505 59.9873 232.505C59.3625 232.193 58.5295 232.193 58.0089 232.817C57.9048 232.922 57.8006 233.13 57.6965 233.338C57.6965 233.442 57.5924 233.546 57.5924 233.651C57.4883 233.859 57.4883 233.963 57.4883 234.275C57.4883 234.38 57.4883 234.484 57.4883 234.588C57.3841 234.692 57.3841 234.692 57.28 234.796C56.9676 235.213 56.6552 235.942 56.6552 236.463C56.5511 236.983 56.5511 237.504 56.6552 237.921C56.7594 238.233 56.7594 238.441 56.8635 238.754C56.8635 238.962 56.8635 239.275 56.8635 239.483C56.8635 239.795 56.7593 240.212 56.7593 240.524C56.6552 241.253 57.1759 242.295 57.6965 242.816C58.2172 243.336 58.8419 243.649 59.5708 243.753C60.2997 243.857 61.0286 243.753 61.6533 243.336C62.3822 242.92 63.007 242.191 63.1111 241.358C63.5276 239.587 63.5276 237.712 63.007 236.046Z" fill="#2E2D29"></path><path d="M59.9876 232.401C59.9876 232.401 59.8833 232.401 59.9876 232.401C59.6747 232.297 59.6747 232.297 59.9876 232.401Z" fill="#2E2D29"></path><path d="M16.7746 235.525C16.4622 235.108 16.1498 234.692 15.6292 234.379H15.5251C15.421 234.171 15.4209 233.859 15.3168 233.65C15.2127 233.13 14.7962 232.713 14.3797 232.401C13.9632 232.192 13.3384 232.088 12.8178 232.192C12.0889 232.401 11.6724 232.921 11.4641 233.65H11.36C11.36 233.859 11.2559 234.171 11.2559 234.379C11.2559 234.275 11.36 234.171 11.36 234.067C11.1518 234.588 11.0476 235.004 10.9435 235.525C10.9435 235.629 10.9435 235.733 10.9435 235.733C10.6311 236.15 10.4229 236.566 10.3187 237.087C9.90224 238.233 10.1105 239.691 10.7352 240.732C10.9435 240.941 11.0476 241.149 11.2559 241.357C11.5683 241.67 11.8806 241.878 12.2971 241.982C12.5054 242.086 12.8178 242.19 13.1302 242.19C13.5467 242.295 13.9632 242.295 14.3797 242.086C14.9003 241.878 15.3168 241.67 15.7333 241.253C16.0457 240.941 16.254 240.628 16.3581 240.212C16.5663 239.795 16.6705 239.483 16.6705 238.962C16.6705 238.858 16.6705 238.754 16.6705 238.649C16.7746 238.545 16.7746 238.441 16.8787 238.337C17.087 238.024 17.1911 237.608 17.1911 237.191C17.2952 236.879 17.2952 236.671 17.1911 236.358C17.087 236.254 16.9828 235.837 16.7746 235.525Z" fill="#2E2D29"></path><path d="M43.1188 252.502C43.1188 252.189 43.1188 251.981 43.1188 251.668L43.0146 250.002C43.0146 249.481 42.8064 248.856 42.5981 248.336C42.5981 248.336 42.5981 248.232 42.494 248.232C42.3899 248.023 42.2857 247.919 42.0775 247.711C41.5569 247.19 40.6197 246.773 39.7867 246.773C38.9537 246.773 38.1206 247.086 37.4959 247.711C36.9752 248.336 36.5587 249.065 36.5587 250.002C36.5587 250.523 36.4546 251.148 36.4546 251.668C36.4546 251.981 36.4546 252.189 36.4546 252.502C36.4546 252.918 36.4546 253.231 36.5587 253.647C36.5587 253.855 36.6629 253.96 36.767 254.168C36.767 254.376 36.767 254.689 36.767 254.897C36.767 255.418 36.8711 255.938 37.1835 256.459C37.1835 256.563 37.2876 256.563 37.3918 256.667C37.4959 256.876 37.6 257.084 37.8083 257.188C38.3289 257.709 39.0578 258.021 39.7867 258.021C40.5156 258.021 41.2445 257.813 41.7651 257.188C41.9733 256.98 42.1816 256.667 42.3899 256.355C42.7022 255.834 42.8064 255.314 42.8064 254.793C42.8064 254.584 42.8064 254.272 42.8064 254.064C42.9105 253.855 43.0146 253.751 43.0146 253.543C43.1188 253.231 43.1188 252.918 43.1188 252.502Z" fill="#2E2D29"></path><path d="M7.50706 181.994C7.40294 181.994 7.40294 181.994 7.50706 181.994C7.50706 181.265 7.09055 180.64 6.36166 180.327C5.52864 180.015 4.48739 180.223 4.07088 181.056V181.161C3.13373 181.369 2.30072 181.994 1.98833 183.035C1.88421 183.452 1.78006 183.973 1.67593 184.389C0.634662 185.014 -0.0942343 186.055 0.00989283 187.305C0.00989283 188.243 0.426427 189.076 0.947063 189.805C0.947063 189.909 0.947063 190.013 0.947063 190.013C1.05119 190.742 1.1553 191.471 1.78007 191.888C2.19658 192.304 2.71721 192.513 3.34198 192.617C4.69563 192.825 5.94515 191.992 6.36166 190.638C6.46578 190.013 6.56993 189.492 6.67406 188.867C6.67406 188.763 6.77816 188.763 6.77816 188.659C7.19467 187.826 7.2988 187.097 7.40293 186.16C7.50706 185.431 7.40292 184.597 7.2988 183.868C7.2988 183.348 7.40294 182.619 7.50706 181.994Z" fill="#2E2D29"></path><path d="M85.4986 224.069C85.6028 222.819 84.978 221.674 84.7697 220.424C84.6656 219.799 84.0408 219.07 83.5202 218.758C83.4161 218.758 83.312 218.653 83.2078 218.653C83.2078 218.653 83.2078 218.653 83.1037 218.549L82.9996 218.445C82.8954 218.341 82.6872 218.237 82.4789 218.237C82.2707 218.237 82.1665 218.237 81.9583 218.237C81.8542 218.237 81.75 218.237 81.6459 218.237C81.6459 218.237 81.6459 218.237 81.5418 218.237C81.4376 218.237 81.3335 218.341 81.2294 218.341C81.1253 218.445 81.1252 218.445 81.0211 218.445C80.5005 218.653 79.9799 219.07 79.7716 219.591C79.6675 219.799 79.5633 220.007 79.4592 220.216C79.251 221.465 78.6262 222.611 78.7304 223.861C78.7304 224.486 78.8345 225.006 79.1468 225.527V225.631C79.251 226.464 79.4592 227.089 79.9798 227.714C80.5005 228.235 81.3335 228.651 82.0624 228.547C82.7913 228.547 83.6243 228.235 84.1449 227.714C84.6656 227.193 85.0821 226.36 84.978 225.631C84.978 225.527 84.978 225.527 84.978 225.423C85.2904 225.215 85.4986 224.59 85.4986 224.069Z" fill="#2E2D29"></path></svg>