<svg xmlns="http://www.w3.org/2000/svg" width="233" height="203" viewBox="0 0 233 203" fill="none"><g opacity="0.3"><path d="M189.12 125.141C188.837 124.008 188.27 123.159 187.987 122.027C187.704 121.743 187.704 121.177 187.421 120.894C186.006 118.912 184.874 117.78 182.892 116.364C181.76 115.515 180.061 114.948 178.646 114.382C178.363 114.382 177.797 114.099 177.514 114.099C176.381 113.816 175.249 113.816 174.117 113.816C173.833 113.816 173.268 113.816 172.985 113.816C171.852 113.816 170.72 114.099 169.587 114.382C168.172 114.665 166.757 115.232 165.624 116.081C165.058 116.647 164.492 116.93 163.926 117.497C163.077 118.346 162.511 119.195 162.228 120.328C161.944 120.894 161.662 121.744 161.662 122.593C161.378 123.725 161.378 124.858 161.945 125.99C162.228 127.123 162.511 127.972 163.077 128.822L163.36 129.105C163.36 130.237 163.643 131.087 163.926 131.936C164.209 132.502 164.209 132.785 164.492 133.068C164.775 135.05 165.908 136.749 167.323 138.165C168.738 139.58 170.72 140.996 172.701 141.279C174.966 141.845 176.947 141.845 179.212 141.279C180.344 140.996 181.194 140.43 182.043 140.147C182.326 139.863 182.892 139.864 183.175 139.58C184.024 139.014 184.874 138.448 185.723 137.599C186.572 136.749 187.138 135.9 187.704 135.05C188.553 133.918 189.119 132.502 189.686 131.087C189.686 129.388 189.686 127.689 189.12 125.141Z" fill="white"></path><path d="M232.145 178.651C231.862 177.802 231.579 176.952 231.013 176.103C231.013 175.82 231.013 175.82 231.013 175.537C230.73 174.404 230.164 173.272 229.881 172.422C229.315 171.29 228.465 170.44 227.899 169.591C226.201 167.609 223.653 166.477 221.106 165.627C216.86 164.212 212.047 165.061 207.801 165.91C206.103 166.477 204.688 167.043 203.555 168.458C202.706 169.308 201.857 170.44 201.574 171.573C201.008 172.705 200.725 173.838 200.725 175.254C200.725 176.952 201.291 178.651 202.14 180.067C202.423 180.35 202.423 180.633 202.706 181.199C203.272 182.048 204.121 183.181 204.971 184.03C205.82 184.88 206.669 185.446 207.801 186.295C208.084 186.579 208.368 186.578 208.651 186.862C208.651 186.862 208.934 186.862 208.934 187.145C210.066 189.127 211.481 190.542 213.18 191.675C214.029 192.241 214.878 192.524 215.727 192.807C216.294 193.09 216.86 193.09 217.426 193.09C219.124 193.373 220.256 193.374 221.955 192.807C224.785 191.958 227.05 189.976 228.748 187.711C229.032 187.428 229.314 186.862 229.314 186.579C231.862 184.03 232.711 181.199 232.145 178.651Z" fill="white"></path><path d="M163.643 190.26C163.926 187.712 162.794 184.881 161.095 182.899C161.095 182.899 161.095 182.899 160.812 182.616C160.529 182.333 159.963 181.766 159.397 181.483C158.548 180.351 157.699 179.218 156.566 178.652C156.283 178.369 156 178.369 155.434 178.086C155.151 177.803 154.868 177.52 154.585 177.236C152.037 175.538 148.357 175.538 145.809 177.236C143.828 178.652 142.13 180.351 141.563 182.899C140.997 184.598 141.281 186.579 141.847 188.278C141.847 188.561 141.847 188.845 141.847 189.128C141.847 191.676 143.262 194.507 145.809 195.923C146.942 196.489 148.074 197.055 149.207 197.338C150.339 197.621 151.471 197.621 152.603 197.905C152.603 197.905 152.603 197.905 152.886 197.905C153.169 197.905 153.17 198.188 153.453 198.188C154.302 198.471 155.151 198.754 156 198.754C157.133 198.754 158.548 198.471 159.397 197.905C159.963 197.621 160.529 197.338 160.812 196.772C161.945 196.489 163.077 195.356 163.36 194.224C163.36 193.941 163.36 193.658 163.36 193.375C163.36 192.525 163.643 191.393 163.643 190.26Z" fill="white"></path><path d="M85.7977 121.743C84.6654 120.611 83.2501 119.478 81.5516 118.912C80.4194 118.346 79.2869 117.779 77.8716 117.496C76.7393 117.213 75.3242 116.93 73.9089 116.93C73.3427 116.93 72.7764 116.93 71.9272 116.93C70.5118 116.93 69.0964 117.213 67.9641 117.496C65.1334 118.346 62.5859 120.611 61.7367 123.725C61.4536 125.141 61.4536 126.84 61.7367 128.255C62.0198 129.671 62.8691 131.086 64.0014 132.219C64.8506 133.351 65.9828 134.484 67.3981 135.333C68.5304 136.183 69.6628 137.032 71.0782 137.881C72.7766 138.731 74.4748 139.297 76.1732 139.58C77.3055 139.863 78.1547 139.863 79.2869 139.863C79.57 139.863 80.1362 139.863 80.4193 139.863C81.2685 139.863 82.1178 139.863 82.967 139.58C83.2501 139.58 83.5332 139.58 84.0993 139.58C85.5147 139.58 86.6468 139.297 87.7791 138.448C90.0436 137.032 91.4591 134.767 91.4591 132.219C92.0253 127.972 89.1945 124.008 85.7977 121.743Z" fill="white"></path><path d="M124.579 52.6613C124.579 52.3782 124.579 52.3782 124.579 52.6613C124.862 51.5288 125.145 50.6794 125.145 49.5469C125.145 48.4144 124.862 47.2819 124.862 46.4326C124.862 46.1494 124.862 46.1494 124.579 45.8663C124.296 45.0169 124.013 44.1676 123.447 43.3183C122.315 41.6195 120.899 40.2039 119.201 39.0714C118.352 38.5052 117.22 38.222 116.37 37.9388C116.087 37.9388 115.804 37.6558 115.521 37.6558C114.672 37.3727 113.54 37.3726 112.407 37.3726C111.275 37.3726 110.143 37.6558 109.294 37.6558C107.878 37.9389 106.746 38.5052 105.614 39.0714C104.481 39.6377 103.349 40.4869 102.5 41.6194C101.084 43.3182 99.9522 45.017 99.6691 46.9988C99.3861 49.547 99.103 50.1132 99.6691 52.6613C99.9522 53.7938 100.235 54.6431 100.801 55.7756L101.084 56.0588C101.651 56.9082 102.217 57.4743 102.783 58.0406C103.632 58.89 104.481 59.4562 105.331 60.0225H105.614C106.18 60.5887 106.746 61.155 107.312 61.4381C108.161 61.7212 108.727 62.2874 109.577 62.2874C110.426 62.2874 111.275 62.5707 112.124 62.5707C113.257 62.5707 114.389 62.2875 115.238 62.0044C117.219 61.4381 118.918 60.3056 120.616 59.1731C120.616 59.1731 120.616 59.1732 120.899 58.8901C121.749 58.0407 122.315 57.4745 123.164 56.0588C124.013 55.2095 124.296 53.7938 124.579 52.6613Z" fill="white"></path><path d="M70.5123 63.9852C70.2292 63.4189 69.38 62.5695 69.0969 62.2863C68.5308 61.7201 67.6817 61.1539 67.1155 60.5877C66.2663 60.0214 65.1341 59.7383 64.0018 59.7383C63.7187 59.7383 63.1525 59.4551 62.8694 59.4551C62.3033 59.4551 62.0202 59.4552 61.4541 59.7383C60.0387 60.0214 59.4724 60.0213 58.057 60.8707C57.7739 61.1538 57.2081 61.4371 56.925 61.7202C56.3588 61.7202 56.0758 61.437 55.5096 61.437C53.245 61.437 50.6971 62.8527 49.5648 64.8345C48.9987 65.9671 48.7158 67.0996 48.7158 68.2321C48.7158 69.3646 48.9987 70.4971 49.5648 71.6296C50.131 72.1959 50.414 73.0451 50.9802 73.6114C51.5463 74.1776 52.3958 74.744 52.9619 75.3103C53.8111 75.8765 54.9433 76.4428 56.0756 76.7259L56.3586 77.0089C56.6417 77.2921 56.9249 77.5752 57.491 77.8583C58.0571 78.1414 58.6231 78.4246 59.4724 78.4246C60.0385 78.4246 60.3216 78.4246 60.8877 78.4246C61.4539 78.4246 62.3033 78.1414 62.8694 77.8583C63.1525 77.5752 63.4354 77.2921 63.7185 77.0089C64.0015 77.0089 64.2848 77.0089 64.2848 77.0089C65.134 76.7258 65.9833 76.4428 66.8325 75.8765C68.2479 75.3103 69.6631 73.8946 70.2293 72.479C72.2108 69.9309 71.9276 66.5333 70.5123 63.9852Z" fill="white"></path><path d="M132.788 120.327C132.505 118.912 131.939 117.496 131.09 116.08C131.09 115.514 131.09 114.948 131.09 114.382C131.09 114.099 131.09 113.532 131.373 113.249C131.373 112.117 131.09 110.701 130.524 109.852C130.241 109.002 129.957 108.436 129.391 107.87C128.825 107.021 127.976 106.171 126.844 105.605C125.711 104.472 124.579 103.34 123.164 102.207C122.031 101.641 120.899 101.075 119.767 100.509C119.201 100.225 118.635 100.226 118.068 99.9425C116.936 99.6593 115.521 99.3761 114.388 99.6592C112.973 99.6592 111.841 100.226 110.709 100.792C110.142 101.358 109.293 101.924 108.727 102.207C107.878 103.057 107.029 104.189 106.746 105.322C106.462 105.888 106.179 106.737 106.179 107.304C105.613 107.87 105.33 108.436 104.764 109.002C104.198 109.569 103.915 110.135 103.632 110.701C102.783 112.683 102.216 114.665 101.933 116.93C101.933 119.195 102.5 121.177 103.632 123.442C103.915 123.725 103.915 124.291 104.198 124.574C104.764 125.424 105.613 126.556 106.179 127.122C107.878 128.821 109.576 129.671 111.841 130.52C112.973 130.803 114.105 131.086 115.238 131.086C116.37 131.086 117.785 130.803 118.917 130.803C119.484 130.803 119.767 130.52 120.05 130.52C120.899 130.237 122.031 129.671 122.881 129.387H123.164C124.013 129.954 124.862 129.954 125.428 129.954C126.561 129.954 127.693 129.387 128.542 128.821C128.542 128.821 128.825 128.821 128.825 128.538C132.222 127.122 133.637 123.725 132.788 120.327Z" fill="white"></path><path d="M103.065 187.428C102.782 184.88 101.367 182.898 99.6684 181.199C98.5361 179.784 96.8377 178.368 95.1393 177.802C93.4409 176.953 91.7423 176.103 89.7608 175.82C87.4963 175.537 86.081 175.254 83.8164 175.82C81.8349 176.103 80.4194 177.236 78.7209 178.368C76.4564 180.35 75.3242 183.464 75.3242 186.579C75.3242 188.844 75.8902 191.675 77.3056 193.657C78.4379 195.356 79.5702 196.488 81.5517 197.621C81.8347 197.904 82.401 197.904 82.684 198.187C82.9671 198.47 83.25 198.753 83.533 199.036C85.5145 201.301 88.3455 202.434 91.1762 202.717C92.0254 203 92.8747 203 93.7239 203C95.1393 203 96.5544 202.717 97.6867 201.868C98.2528 201.584 98.8192 201.018 99.3854 200.452C99.6684 200.169 99.6683 200.169 99.9514 199.886C101.367 198.47 102.216 196.771 102.499 194.789C102.499 194.506 102.782 194.223 102.782 193.94C103.631 191.958 103.631 189.693 103.065 187.428Z" fill="white"></path><path d="M183.174 76.1603C182.891 75.3109 182.608 74.4616 182.325 73.8953C182.325 73.6122 182.042 73.329 182.042 73.329C181.759 72.7628 181.193 72.1966 180.91 71.6304L180.627 71.3471C179.777 70.4978 178.928 69.9315 178.079 69.3652C176.663 68.5159 174.965 67.9497 173.267 68.2328C171.568 68.516 169.87 68.7991 168.454 69.6485C168.171 69.9316 167.889 70.2147 167.322 70.4978C167.039 70.7809 166.473 71.064 166.19 71.3471C165.624 71.9134 165.058 72.7628 164.492 73.329C163.926 74.1784 163.359 75.3108 163.076 76.4433C162.793 78.1421 162.51 80.124 163.076 81.8227C163.359 82.389 163.642 83.2384 163.925 83.8046C163.925 83.8046 163.925 83.8046 163.925 84.0877C164.208 84.6539 164.775 85.5034 165.341 86.0696C165.907 86.6358 166.756 87.202 167.605 87.7683C168.455 88.0514 169.021 88.6178 169.87 88.6178C171.851 88.9009 172.701 88.9009 174.682 88.6178C175.814 88.9009 176.947 88.9009 178.079 88.6178C178.645 88.3347 179.211 88.0515 179.777 88.0515C180.343 87.7684 180.626 87.4852 181.193 86.9189C181.193 86.9189 181.193 86.6359 181.476 86.6359C181.759 86.3528 182.325 85.5033 182.608 84.937C182.891 84.3708 183.174 83.5216 183.457 82.9553C183.457 82.6722 183.74 82.3889 183.74 82.1058C184.023 80.9733 184.306 79.8409 184.023 78.7085C183.457 77.8591 183.457 77.0096 183.174 76.1603Z" fill="white"></path><path d="M29.1835 30.2941C28.9004 29.4447 28.6172 28.5954 28.3341 27.7461C28.0511 27.1798 27.7682 26.6135 27.4851 25.7642C26.919 24.6317 26.0696 23.7823 25.2204 22.9329C24.9373 22.3667 24.3712 22.0835 23.8051 21.8004C23.2389 21.5172 22.6728 20.9511 22.1067 20.668C20.9744 20.1017 19.8423 19.5355 18.71 19.2524C16.7285 18.6861 15.596 18.686 13.6145 18.9691C13.0484 18.9691 12.1993 18.9692 11.6332 19.2524C10.784 19.5355 9.65168 19.8185 8.80247 20.3848C8.51939 20.6679 8.23612 20.6679 8.23612 20.951C6.82076 21.5173 5.40533 22.0836 4.27304 22.9329C1.7254 24.3486 -0.256104 27.463 0.0269679 30.5773C0.31004 33.1254 0.87639 35.9565 2.00868 38.2215C3.42404 40.4865 5.12253 42.4684 7.38711 43.6009C8.23632 44.1672 9.08554 44.4504 10.2178 44.7335C10.5009 44.7335 10.7838 45.0166 11.0668 45.0166C12.1991 45.2997 13.6145 45.5827 15.0299 45.2996C16.1622 45.2996 17.5777 45.0166 18.71 44.7335C18.993 44.7335 18.9929 44.4503 19.276 44.4503C23.8051 44.1672 27.4852 40.4866 28.6175 36.5228C28.9006 35.9566 28.9005 35.3904 28.9005 34.8242C28.9005 34.2579 29.1835 33.6916 29.1835 33.1253C29.4666 32.5591 29.4666 31.4266 29.1835 30.2941Z" fill="white"></path><path d="M39.9401 93.9975C39.0908 91.7325 37.3922 89.4675 35.1277 88.335C32.58 86.9193 30.0325 86.9194 27.4849 87.4856C26.0696 87.7687 24.6541 88.3349 23.5219 89.1843C20.4081 88.0518 16.7281 88.0519 13.8974 89.4675C12.199 90.3169 10.5006 91.4494 9.65136 93.1481C8.23601 95.6962 8.23601 98.5275 9.65136 101.076C10.5006 102.774 12.4823 104.19 14.4638 104.756C16.7283 105.322 19.2757 105.039 21.2572 103.624C21.8233 104.19 22.3896 104.473 23.2389 104.756V105.039C24.9373 108.154 29.1832 109.286 32.297 108.437C34.2784 108.154 36.2601 107.021 37.3924 105.322C39.94 102.491 41.3554 97.9612 39.9401 93.9975Z" fill="white"></path><path d="M84.6655 15.8549C84.6655 13.8731 83.8162 11.608 82.1178 9.90922C80.4194 8.21048 78.4379 6.79487 76.1734 5.66237C75.3241 5.09613 74.1919 4.81311 73.3426 4.52998C71.3611 2.54812 68.8135 0.849379 66.2658 0.283132C64.0013 -0.283114 61.1705 -2.56507e-05 59.189 1.13247C57.2075 2.54808 55.7922 4.24689 54.943 6.51188C53.8107 9.90936 53.8107 13.8731 54.943 17.2705C55.226 19.8186 56.6416 22.0835 58.34 24.0654C59.1893 24.9148 60.0385 25.7643 61.1708 26.3305C62.02 26.8968 63.1522 27.463 64.2845 27.7461H64.5675C65.1336 28.0293 65.6996 28.3122 66.5488 28.3122C66.8319 28.3122 67.1151 28.5955 67.3982 28.5955C68.8136 28.8786 69.6626 28.8785 70.7949 28.8785C71.9272 28.5954 73.0598 28.3124 73.909 27.7461C74.7582 27.1799 75.6072 26.3305 76.1734 25.7642C78.1549 24.6317 80.1364 23.2161 81.8348 21.5174C83.8163 20.3849 84.6655 17.8368 84.6655 15.8549Z" fill="white"></path><path d="M50.697 155.718C50.4139 153.453 50.1309 152.038 48.9986 150.056C48.4324 149.206 47.8663 148.357 47.3002 147.791C47.0171 147.508 46.7339 147.224 46.4508 146.941C44.7524 145.526 43.3372 144.676 41.3557 143.827C41.0726 143.827 40.7894 143.544 40.5063 143.544C39.9402 143.544 39.3742 143.261 38.5249 143.261C38.5249 143.261 38.5247 143.261 38.2416 143.261C38.2416 143.261 38.2416 143.261 37.9586 143.261C37.1093 143.261 36.5434 142.978 35.6942 142.978C34.845 142.978 33.7127 143.261 32.8634 143.261C31.7311 143.544 30.8816 144.11 29.7493 144.393L28.0509 145.809C27.2017 146.658 26.6356 147.508 26.3526 148.64C26.0695 149.206 25.7866 150.056 25.7866 150.622C25.5035 151.754 25.5034 152.887 26.0696 154.02C26.3526 154.586 26.6355 155.152 26.9186 155.718C26.9186 156.284 27.2019 157.134 27.2019 157.7V157.983C27.485 158.833 27.7678 159.682 28.334 160.248C28.334 160.531 28.6173 160.815 28.6173 160.815C29.1835 161.381 29.4665 162.23 30.0327 162.796L30.3157 163.08C31.7311 164.212 33.4294 165.345 35.1278 165.911C35.977 166.194 37.1093 166.194 37.9586 166.194C38.5247 166.194 39.6572 165.911 40.2233 165.911C40.2233 165.911 40.2232 165.911 40.5063 165.911C41.3555 165.628 42.7711 165.061 42.7711 165.061C42.7711 165.061 42.771 165.061 43.0541 165.061C43.9033 164.778 45.0356 164.495 45.8848 163.929C47.3002 163.363 48.4324 161.947 49.2816 160.815C50.1308 159.399 50.1309 158.266 50.414 156.851V156.568C50.697 156.001 50.697 156.001 50.697 155.718Z" fill="white"></path><path d="M169.021 18.6855C169.021 17.8361 168.454 16.9868 168.171 16.4205C168.171 16.1374 167.888 15.5711 167.888 15.288C167.039 13.023 165.624 11.0411 163.642 9.62547C162.793 9.05921 161.944 8.77602 161.095 8.4929C160.529 8.20977 159.963 8.20984 159.113 8.20984C158.83 8.20984 158.547 7.92678 157.981 7.92678C156.849 7.64366 155.717 7.64355 154.584 7.64355C153.452 7.64355 152.32 7.92678 151.187 7.92678C150.904 7.92678 150.621 7.92671 150.338 8.20984C149.206 8.49296 148.357 9.05921 147.224 9.62547C146.092 10.1917 145.243 11.0412 144.677 12.1737C143.828 13.023 143.261 14.1555 142.978 15.288C142.978 15.8542 142.978 16.4205 142.695 16.7036C142.412 17.553 142.129 18.4024 142.129 19.2518C142.129 20.1012 142.412 20.6674 142.412 21.5168C142.695 22.9324 143.545 24.0648 144.677 25.1973C145.809 26.0467 147.224 27.1793 148.64 27.7455C149.772 28.3118 150.904 28.5949 152.037 29.1612C152.886 29.7274 154.018 30.2937 155.15 30.5768C156.283 30.8599 157.698 31.1429 159.113 31.1429C159.963 31.1429 161.095 30.8598 161.944 30.8598C162.793 30.5767 163.926 30.2935 164.775 29.7273C165.341 29.4442 165.907 28.878 166.473 28.5949C167.322 28.0286 167.888 27.1792 168.171 26.0467C168.454 25.4804 168.738 24.9142 168.738 24.0648C168.738 23.7817 168.738 23.7818 169.021 23.4987C169.304 21.7999 169.304 20.1011 169.021 18.6855Z" fill="white"></path></g></svg>