<svg xmlns="http://www.w3.org/2000/svg" width="252" height="221" viewBox="0 0 252 221" fill="none"><path d="M0.70446 41.166C1.16305 34.1941 3.0891 25.2958 9.50936 21.3512C20.6989 14.5628 34.2732 25.2958 44.6374 29.2405C58.3033 34.5611 72.7947 37.4049 87.1945 40.3404C111.316 45.2024 135.53 49.1469 159.56 54.2841C175.335 57.6783 173.318 80.979 172.859 92.9046C172.125 116.114 175.427 139.231 176.161 162.44C176.436 169.779 170.749 174.09 163.779 173.54C118.929 169.87 73.6202 162.44 30.0542 150.973C17.0302 147.579 8.95909 142.075 6.11584 128.406C0.337611 99.8764 -1.03818 70.246 0.70446 41.166Z" fill="#F3EAE2"></path><path d="M87.1028 160.513C94.2569 150.881 104.438 142.533 116.819 142.35C122.781 142.258 128.101 144.368 133.145 147.303C133.329 147.395 134.704 148.129 136.172 148.955C138.373 144.643 145.252 138.588 146.444 137.763C151.672 134.552 158.459 133.818 164.421 135.194C171.3 136.846 176.803 141.249 181.022 146.753C183.04 149.322 184.324 152.44 186.433 154.826C187.809 152.624 189.552 150.698 191.57 149.046C192.212 148.037 193.037 147.028 193.863 146.111C201.659 137.304 219.635 135.653 226.056 147.67C226.606 148.771 227.156 149.872 227.706 150.881C228.348 151.89 228.991 152.899 229.449 153.908C232.017 154.459 234.585 155.468 236.97 157.027C240.547 158.312 244.032 160.605 246.967 164.091C258.157 176.934 249.352 197.849 233.668 202.436H233.576C233.118 202.528 231.008 208.032 230.275 208.858C225.23 214.82 217.067 219.04 208.996 219.958C202.851 220.6 197.623 218.123 192.12 215.921C183.865 212.619 183.682 214.178 175.978 216.472C163.045 220.233 149.93 218.948 138.74 211.151C134.338 208.124 128.468 203.17 126.633 197.849C126.542 197.574 126.083 196.932 125.808 196.382C125.166 196.657 124.065 197.024 123.331 197.391C111.041 203.17 97.7421 207.573 86.4608 196.84C75.6381 186.474 79.2151 171.246 87.1028 160.513Z" fill="#8CB13B"></path><path d="M166.714 163.999C166.622 163.999 166.622 163.907 166.53 163.816C160.936 158.587 157.634 151.156 157.359 143.359C156.992 132.442 161.119 121.709 170.383 115.38C180.472 108.408 194.78 108.775 204.227 116.756C208.537 120.425 211.656 125.654 212.848 131.341C213.857 134.093 214.499 136.937 214.591 139.873C215.141 150.514 210.005 160.33 201.292 166.384C193.22 171.98 182.031 172.622 173.226 168.402C172.675 168.127 172.217 167.852 171.758 167.577C171.667 167.577 171.667 167.485 171.575 167.485C171.3 167.302 171.025 167.118 170.749 166.935C169.924 166.384 169.007 165.834 168.273 165.192C168.181 165.1 168.181 165.1 168.09 165.008C167.814 164.825 167.631 164.549 167.356 164.366C167.172 164.458 166.897 164.274 166.714 163.999Z" fill="#F1E892"></path><path d="M31.8885 49.3304C31.9802 48.5048 32.714 48.3214 33.356 48.5048C33.4477 48.4131 33.6312 48.4131 33.7229 48.5048C33.7229 48.5966 33.8146 48.6883 33.8146 48.6883C33.998 48.8718 34.1814 48.9635 34.2732 49.2387C34.3649 49.6056 34.4566 49.9726 34.6401 50.2478C37.2082 55.6602 42.8947 68.0444 35.7407 69.1452C26.8441 70.5213 31.2465 53.2751 31.8885 49.3304Z" fill="#ED9936"></path><path d="M9.05107 70.7047C9.14279 69.8791 9.87651 69.6956 10.5185 69.8791C10.6103 69.7874 10.7937 69.7874 10.8854 69.8791C10.8854 69.9708 10.9771 70.0626 10.9771 70.0626C11.1606 70.2461 11.344 70.3378 11.4357 70.613C11.5274 70.9799 11.6192 71.3469 11.8026 71.6221C14.3707 77.0344 20.0573 89.4186 12.9033 90.5195C4.09837 91.8955 8.50076 74.6493 9.05107 70.7047Z" fill="#ED9936"></path><path d="M36.1077 85.0155C36.1995 84.1899 36.9332 84.0064 37.5753 84.1899C37.667 84.0982 37.8504 84.0982 37.9421 84.1899C37.9421 84.2816 38.0339 84.3734 38.0339 84.3734C38.2173 84.5568 38.4007 84.6486 38.4924 84.9238C38.5842 85.2907 38.6758 85.6577 38.8593 85.9329C41.4274 91.3452 47.1139 103.729 39.9599 104.83C31.155 106.206 35.5574 88.8684 36.1077 85.0155Z" fill="#ED9936"></path><path d="M54.6346 55.0182C54.7263 54.1926 55.4601 54.0091 56.1021 54.1926C56.1938 54.1008 56.3772 54.1008 56.469 54.1926C56.469 54.2843 56.5607 54.376 56.5607 54.376C56.7441 54.5595 56.9276 54.6512 57.0193 54.9265C57.111 55.2934 57.2027 55.6603 57.3861 55.9355C59.9542 61.3479 65.6408 73.7322 58.4868 74.833C49.6818 76.209 54.0843 58.9628 54.6346 55.0182Z" fill="#ED9936"></path><path d="M41.7943 22.2687C41.886 21.4431 42.6198 21.2596 43.2618 21.4431C43.3535 21.3513 43.5369 21.3513 43.6286 21.4431C43.6286 21.5348 43.7204 21.6266 43.7204 21.6266C43.9038 21.81 44.0873 21.9017 44.179 22.1769C44.2707 22.5439 44.3624 22.9108 44.5458 23.186C47.1139 28.5984 52.8004 40.9826 45.6464 42.0835C36.8415 43.4595 41.244 26.2133 41.7943 22.2687Z" fill="#ED9936"></path><path d="M10.5183 26.5802C10.61 25.7546 11.3439 25.5711 11.9859 25.7546C12.0776 25.6629 12.261 25.6629 12.3527 25.7546C12.3527 25.8463 12.4445 25.938 12.4445 25.938C12.6279 26.1215 12.8114 26.2133 12.9031 26.4885C12.9948 26.8554 13.0864 27.2223 13.2699 27.4976C15.838 32.9099 21.5246 45.2942 14.3706 46.395C5.47386 47.771 9.87628 30.4331 10.5183 26.5802Z" fill="#ED9936"></path><path d="M23.2669 0.894411C23.3586 0.0687957 24.0924 -0.114669 24.7344 0.0688013C24.8262 -0.0229338 25.0096 -0.0229338 25.1013 0.0688013C25.1013 0.160536 25.193 0.252254 25.193 0.252254C25.3765 0.435724 25.5599 0.527465 25.6516 0.80267C25.7433 1.16961 25.835 1.53656 26.0185 1.81176C28.5866 7.22413 34.2731 19.6084 27.1191 20.7092C18.3142 22.0852 22.7166 4.83902 23.2669 0.894411Z" fill="#ED9936"></path></svg>