<svg xmlns="http://www.w3.org/2000/svg" width="163" height="113" viewBox="0 0 163 113" fill="none"><path d="M27.3664 24.7991C38.0038 23.0259 49.5797 29.7016 59.1742 33.8739C69.9158 38.5677 80.7618 43.2615 91.2949 48.3726C101.828 53.3793 112.152 59.1163 122.477 64.5402C127.274 67.0436 132.071 69.547 136.869 71.9461C141.874 74.4494 147.923 76.5356 151.677 80.8122C153.972 83.3156 152.512 87.9051 148.757 87.8007C143.022 87.6964 137.599 84.6716 132.384 82.4811C127.378 80.4993 122.373 78.5174 117.262 76.6399C106.312 72.5719 95.1535 68.9211 84.3075 64.6445C73.3573 60.3679 62.5115 55.7784 51.6655 51.2932C42.071 47.4338 29.1394 43.8874 22.9864 35.2299C20.5878 31.7877 22.9863 25.5293 27.3664 24.7991Z" fill="#ED9936"></path><path d="M3.90139 48.6854C9.95008 45.5562 16.2073 47.2251 22.7775 47.9552C28.9304 48.6854 35.0834 50.5629 40.9236 52.6491C53.751 57.03 66.5784 61.5152 78.9886 67.0435C90.7732 72.1545 102.349 77.7872 113.821 83.5241C124.458 88.8437 138.641 93.8505 144.69 104.803C146.15 107.515 145.107 112.209 141.457 112.73C129.255 114.399 117.992 107.723 106.833 103.342C94.8403 98.6486 82.743 94.372 70.6456 90.1997C58.4439 85.9231 46.3465 81.3336 34.1449 77.3699C28.3047 75.4924 22.256 73.4062 16.6245 70.7986C10.9929 68.0866 4.2142 65.3746 0.981275 59.8463C-1.00019 56.0912 0.042735 50.7715 3.90139 48.6854Z" fill="#ED9936"></path><path d="M39.9849 0.0782649C45.9293 -0.443272 51.4567 1.74717 57.4011 3.52039C62.9283 5.18931 68.3512 7.58839 73.4613 9.88315C84.6201 14.9942 95.8832 20.2096 106.521 25.8422C116.636 31.1618 126.544 36.7944 136.347 42.427C145.42 47.6424 157.726 53.3793 161.897 60.8894C162.94 62.7669 161.272 65.166 157.934 64.7488C146.463 63.1842 137.077 57.03 127.482 52.3362C117.158 47.2251 106.521 42.3227 95.9875 37.4203C85.3502 32.5178 74.9214 27.4068 64.1798 22.6086C59.0697 20.3139 53.7509 17.9148 48.9536 15.2028C44.1564 12.4908 38.2121 9.57022 36.0221 5.71085C34.4577 3.31179 36.1263 0.495494 39.9849 0.0782649Z" fill="#ED9936"></path></svg>