<svg xmlns="http://www.w3.org/2000/svg" width="205" height="143" viewBox="0 0 205 143" fill="none"><path d="M105.782 0.976542C50.0095 -10.8935 21.41 88.6722 51.566 124.672C144.758 195.438 212.528 31.5922 105.782 0.976542Z" fill="#F1E892"></path><path d="M84.0566 98.8556C82.8893 96.4557 81.3977 94.3151 79.7764 92.1746C78.9982 91.2017 78.2849 90.1639 77.4418 89.2558C77.3769 89.1909 77.3769 89.1261 77.312 89.0612C78.22 88.218 78.9983 86.8558 79.6468 85.8829C81.1384 83.5478 82.1759 80.8235 82.0462 77.9695C81.7868 69.4724 72.5131 62.7914 63.7581 59.6779C61.4883 55.7213 58.2457 52.3484 53.7061 50.0781C49.1665 47.8079 43.5244 46.4458 39.1794 50.0133C37.169 51.6997 35.9367 53.9051 35.1585 56.4348C34.7045 57.8618 34.4452 59.2888 34.0561 60.7158C33.2778 60.586 32.4996 60.3915 31.7214 60.2617C29.2571 59.7428 26.7927 59.0942 24.2635 58.6401C18.1674 57.6023 12.2011 58.1861 7.33724 62.3374C-0.380099 69.0183 -2.97421 82.6397 4.28917 90.5531C5.00254 91.3314 9.02333 94.4449 11.4228 95.7421C9.607 98.0772 7.40203 100.023 5.65104 102.423C-0.704421 110.985 -2.5851 123.698 5.5862 131.806C12.7847 138.941 26.4036 141.082 34.964 135.439C35.0937 135.374 35.7422 134.92 36.3907 134.401C38.012 135.504 39.8278 136.801 40.3466 137.06C45.5348 139.785 51.6309 140.887 57.273 139.006C62.3962 137.32 66.6764 133.428 68.4274 128.239C68.6868 127.525 69.0111 126.682 69.0111 125.969C69.0111 125.709 69.0759 125.579 69.0759 125.385C70.1136 125.19 71.4106 125.255 72.5131 125.19C78.7388 124.736 85.3537 122.92 87.2992 116.044C88.7908 110.531 86.521 103.915 84.0566 98.8556Z" fill="#8CB13B"></path><path d="M187.43 61.6892C180.815 60.5865 173.616 64.7378 167.65 67.3324C160.97 70.2512 154.226 73.1701 147.676 76.3484C141.126 79.4619 134.706 83.0294 128.285 86.4023C125.302 87.959 122.319 89.5157 119.336 91.0076C116.223 92.5643 112.461 93.8616 110.127 96.521C108.7 98.0777 109.608 100.932 111.943 100.867C115.509 100.802 118.882 98.921 122.124 97.5588C125.237 96.3264 128.35 95.094 131.528 93.9265C138.337 91.3968 145.276 89.1266 152.021 86.4671C158.83 83.8077 165.575 80.9537 172.319 78.1646C178.286 75.7646 186.327 73.5593 190.154 68.1756C191.645 66.0351 190.154 62.1433 187.43 61.6892Z" fill="#ED9936"></path><path d="M202.021 76.5429C198.26 74.597 194.369 75.6348 190.283 76.0889C186.457 76.5429 182.631 77.7105 178.999 79.0078C171.022 81.732 163.046 84.5212 155.328 87.9589C148 91.1373 140.802 94.6399 133.668 98.2074C127.053 101.515 118.233 104.629 114.472 111.44C113.564 113.126 114.212 116.045 116.482 116.369C124.07 117.407 131.074 113.256 138.013 110.532C145.471 107.613 152.994 104.953 160.516 102.359C168.104 99.6993 175.627 96.8453 183.214 94.3804C186.846 93.2129 190.608 91.9156 194.11 90.294C197.612 88.6076 201.827 86.9211 203.837 83.4833C205.069 81.1483 204.421 77.8402 202.021 76.5429Z" fill="#ED9936"></path><path d="M179.583 46.3162C175.886 45.9919 172.449 47.3541 168.752 48.4567C165.315 49.4946 161.943 50.9864 158.765 52.4134C151.826 55.5917 144.822 58.8349 138.207 62.3376C131.917 65.6456 125.756 69.1482 119.66 72.6509C114.018 75.8941 106.365 79.4616 103.771 84.1318C103.123 85.2993 104.16 86.7912 106.235 86.5317C113.369 85.5588 119.206 81.7318 125.172 78.8129C131.592 75.6346 138.207 72.586 144.757 69.5374C151.372 66.4888 157.857 63.3105 164.537 60.3268C167.715 58.8998 171.022 57.4079 174.005 55.7215C176.988 54.035 180.685 52.2188 182.047 49.8189C183.02 48.327 181.982 46.5757 179.583 46.3162Z" fill="#ED9936"></path><path d="M125.367 44.8894C125.108 44.3056 125.043 44.1759 124.524 43.5921C124.394 43.3975 124.2 43.3327 124.005 43.1381C123.422 42.684 122.708 42.3597 121.93 42.2948C121.671 42.23 121.476 42.23 121.217 42.23C120.503 42.23 120.244 42.3597 119.66 42.5543C119.206 42.684 118.752 43.0084 118.428 43.3327C118.298 43.4624 118.169 43.5921 118.104 43.7867C117.715 44.2408 117.52 44.6948 117.326 45.2786C117.131 45.9921 117.131 46.8353 117.326 47.484C117.52 48.1326 117.844 48.7164 118.298 49.1704C118.752 49.6245 119.271 49.9488 119.855 50.1434C120.244 50.4028 120.698 50.5974 121.152 50.7271C121.8 50.9217 122.449 50.9217 123.032 50.7271C123.486 50.5974 123.94 50.4028 124.265 50.0785C124.654 49.8191 124.978 49.4947 125.173 49.0407C125.497 48.4569 125.691 47.8731 125.691 47.2245C125.691 47.0299 125.691 46.8353 125.691 46.7056C125.756 45.9921 125.627 45.538 125.367 44.8894Z" fill="#F1E892"></path><path d="M113.629 64.932C113.629 64.6726 113.629 64.4131 113.564 64.1537C113.499 63.1158 113.045 62.078 112.332 61.4294C112.267 61.3645 112.267 61.3645 112.202 61.2997C112.137 61.2348 112.072 61.1699 112.007 61.1051C111.359 60.4564 110.516 59.9375 109.608 59.7429C108.635 59.4835 107.662 59.4835 106.754 59.7429C106.495 59.8078 106.3 59.8727 106.041 60.0024C105.782 60.0672 105.587 60.197 105.328 60.3267C105.133 60.4564 104.355 61.0402 104.16 61.2348C103.966 61.4294 103.836 61.624 103.706 61.8186C103.512 62.0132 103.382 62.2077 103.252 62.4023C103.058 62.8564 102.863 63.2456 102.734 63.6996V63.7645C102.669 64.0239 102.539 64.9969 102.539 65.2563C102.539 65.5158 102.604 65.905 102.669 66.0996C102.734 66.5536 102.734 66.6185 102.798 66.9428L103.382 68.2401C103.382 68.2401 103.382 68.3049 103.447 68.3049C103.706 68.6941 104.031 69.0184 104.29 69.4076C104.809 69.9265 105.393 70.3157 106.041 70.5751C106.495 70.8346 106.949 70.9643 107.403 70.9643C108.116 71.1589 108.895 71.094 109.608 70.8346C110.256 70.7049 110.97 70.3157 111.553 69.8616C112.137 69.4076 112.591 68.9536 112.915 68.3049C113.304 67.7211 113.499 67.0076 113.564 66.2941C113.694 65.7752 113.694 65.3861 113.629 64.932Z" fill="#F1E892"></path><path d="M109.413 45.8624C108.894 43.9813 107.403 42.8786 105.587 42.2948C103.382 41.6462 100.788 43.3975 100.853 45.7975C100.853 45.8624 100.788 45.9272 100.788 46.0569C100.658 47.0299 100.853 48.0029 101.307 48.8461C101.89 49.8839 102.863 50.5974 103.901 50.8569C104.355 51.0515 104.809 51.1163 105.328 51.1812C108.051 51.3109 110.127 48.4569 109.413 45.8624Z" fill="#F1E892"></path><path d="M116.807 27.2463C116.742 27.1815 116.677 27.0517 116.612 26.9869C116.158 26.5977 115.639 26.3383 115.056 26.2085C113.694 26.0139 112.397 26.8572 112.008 28.1544C111.878 28.6085 111.813 29.0625 111.878 29.5166C111.943 30.3598 112.073 30.749 112.462 31.5274C112.851 32.5003 114.213 33.149 115.185 33.0841C116.028 33.0192 116.807 32.7598 117.455 32.176C118.039 31.5922 118.363 30.749 118.363 29.9058C118.298 28.9977 117.715 27.7004 116.807 27.2463Z" fill="#F1E892"></path><path d="M98.2594 26.2737C98.1945 25.171 97.8054 24.0683 96.9623 23.29C96.249 22.5765 95.4059 22.1873 94.4331 22.0575C93.8495 21.9927 93.2658 21.9278 92.6822 22.1224C92.0985 22.2521 91.6445 22.5765 91.1906 22.9656C90.7366 23.29 90.2827 23.744 90.0233 24.2629C89.699 24.7818 89.5693 25.3007 89.5045 25.8845C89.3748 26.4683 89.3747 27.052 89.5693 27.571C89.7639 28.2845 90.153 28.9331 90.6718 29.452C90.8664 29.6466 91.0609 29.7763 91.2554 29.9709C91.45 30.1655 91.6445 30.2953 91.9039 30.425C92.3579 30.7493 92.8767 30.879 93.4604 30.9439C94.044 31.0736 94.5628 31.0736 95.1465 30.879C95.9895 30.6196 96.7678 30.1007 97.2866 29.3872C97.8054 28.7385 98.1297 27.8953 98.1945 27.0521C98.2594 26.7926 98.2594 26.5331 98.2594 26.2737Z" fill="#F1E892"></path><path d="M133.344 28.9329C132.695 28.2842 131.593 27.7653 130.62 27.8302C129.647 27.8951 128.61 28.2194 127.896 28.9329C127.832 28.9977 127.832 28.9977 127.767 29.0626C127.248 29.3869 126.859 29.841 126.535 30.295C126.275 30.6842 126.145 31.1382 126.145 31.5923C126.016 32.0463 126.081 32.5004 126.21 33.0193C126.275 33.149 126.275 33.2139 126.34 33.3436C126.34 33.4085 126.34 33.4733 126.405 33.5382C126.47 33.7977 126.664 34.2517 126.794 34.5112C127.053 35.0301 127.378 35.2895 127.832 35.6787C128.286 36.003 128.804 36.3273 129.323 36.3922C129.647 36.4571 130.101 36.5219 130.426 36.5219C130.49 36.5219 130.555 36.5219 130.62 36.5219C131.139 36.5219 131.658 36.4571 132.112 36.1976C132.566 36.0679 133.02 35.7436 133.344 35.4192C134.057 34.6409 134.446 33.7328 134.446 32.695C134.446 32.3707 134.446 32.0463 134.446 31.6572C134.511 30.6842 134.057 29.5815 133.344 28.9329Z" fill="#F1E892"></path></svg>