<svg xmlns="http://www.w3.org/2000/svg" width="243" height="215" viewBox="0 0 243 215" fill="none"><path d="M160.628 95.4935C159.363 85.5506 157.917 75.5172 150.416 68.0148C142.734 60.3316 132.522 59.1566 122.4 57.3488C103.602 54.0043 84.9855 52.4677 65.9167 52.2869C56.2467 52.1965 46.8478 52.9196 37.1778 54.0947C26.0619 55.4506 16.6631 58.0719 9.43317 67.5629C-3.671 84.4659 1.3899 108.329 0.48616 128.124C-0.417576 148.914 -2.85769 184.076 24.5255 188.686C41.335 191.579 58.8675 194.29 75.9481 194.11C92.3058 193.929 108.663 192.392 124.931 190.494C136.408 189.228 148.609 188.325 156.381 178.562C163.52 169.523 163.43 157.773 163.882 146.835C164.424 129.571 162.888 112.577 160.628 95.4935Z" fill="#F3EAE2"></path><path d="M242.958 75.9693C242.326 67.1111 241.693 58.3432 241.061 49.4849C240.338 39.09 240.789 27.2489 232.837 19.2041C218.919 5.1936 193.524 5.82633 175.269 4.92242C153.489 3.83774 131.709 2.39149 109.838 1.66837C92.4864 1.03563 64.3802 -4.20701 49.9205 7.90531C41.2446 15.1366 37.4489 18.3002 35.6414 30.3221C33.8339 42.3441 34.6473 54.5468 35.4607 66.5687C36.1837 77.6868 38.443 92.9628 51.7279 95.4033C75.0443 99.6516 98.8125 104.533 122.49 104.714C155.748 104.985 188.373 100.556 221.359 97.3919C232.294 96.488 243.772 88.4432 242.958 75.9693Z" fill="#ED9936"></path><path d="M177.257 147.015C172.829 140.417 166.683 135.535 160.628 130.474C154.302 125.141 148.338 120.079 140.023 118.452C123.214 115.107 109.387 120.44 102.789 137.072C100.711 142.405 99.2647 148.009 99.1743 153.704C99.084 161.568 101.614 169.07 104.145 176.392C107.579 185.973 110.833 198.266 118.243 205.679C124.117 211.554 132.703 214.718 140.927 214.627C155.929 214.537 168.31 203.148 175.45 190.854C183.493 177.386 186.566 160.574 177.257 147.015ZM161.08 181.363C160.448 184.618 159.273 187.691 157.556 190.403C153.76 196.188 146.349 196.911 140.475 194.38C131.618 190.583 124.027 183.623 121.045 174.313C117.159 162.291 114.357 137.705 130.353 132.824C137.222 130.745 143.096 134.27 147.434 139.151C157.104 150.269 164.063 166.359 161.08 181.363Z" fill="#418D5B"></path></svg>