<svg xmlns="http://www.w3.org/2000/svg" width="236" height="165" viewBox="0 0 236 165" fill="none"><path d="M122.082 1.12702C57.7156 -12.5721 24.7091 102.336 59.5119 143.883C167.064 225.554 245.277 36.4604 122.082 1.12702Z" fill="#F1E892"></path><path d="M97.0093 114.089C95.6621 111.32 93.9407 108.849 92.0696 106.379C91.1714 105.256 90.3482 104.058 89.3752 103.01C89.3003 102.935 89.3003 102.861 89.2254 102.786C90.2733 101.812 91.1715 100.24 91.9199 99.1176C93.6414 96.4226 94.8389 93.2786 94.6892 89.9848C94.3898 80.1783 83.687 72.4678 73.5829 68.8746C70.9634 64.3082 67.2211 60.4155 61.982 57.7955C56.7428 55.1754 50.2313 53.6034 45.2167 57.7206C42.8965 59.667 41.4744 62.2121 40.5763 65.1316C40.0523 66.7785 39.753 68.4254 39.3039 70.0723C38.4058 69.9226 37.5077 69.698 36.6095 69.5483C33.7654 68.9495 30.9213 68.2009 28.0024 67.6769C20.967 66.4791 14.0812 67.1528 8.46787 71.9438C-0.438671 79.6543 -3.43252 95.3746 4.95011 104.507C5.7734 105.406 10.4138 108.999 13.183 110.496C11.0874 113.191 8.54264 115.437 6.52183 118.207C-0.812969 128.088 -2.98345 142.76 6.447 152.118C14.7548 160.352 30.4723 162.822 40.3518 156.31C40.5015 156.235 41.2499 155.711 41.9983 155.112C43.8695 156.385 45.9651 157.882 46.5639 158.181C52.5514 161.325 59.5869 162.598 66.0984 160.427C72.0112 158.481 76.9509 153.989 78.9717 148C79.2711 147.177 79.6454 146.204 79.6454 145.38C79.6454 145.081 79.7202 144.931 79.7202 144.707C80.9177 144.482 82.4146 144.557 83.687 144.482C90.8721 143.958 98.5062 141.862 100.752 133.927C102.473 127.564 99.8534 119.928 97.0093 114.089Z" fill="#8CB13B"></path><path d="M216.312 71.1949C208.678 69.9223 200.37 74.7132 193.484 77.7076C185.775 81.0762 177.991 84.4449 170.432 88.113C162.873 91.7062 155.463 95.8234 148.053 99.7161C144.611 101.513 141.168 103.309 137.725 105.031C134.132 106.828 129.791 108.325 127.097 111.394C125.45 113.191 126.498 116.484 129.192 116.41C133.309 116.335 137.201 114.164 140.943 112.592C144.536 111.169 148.128 109.747 151.796 108.4C159.654 105.48 167.663 102.86 175.447 99.7909C183.305 96.7217 191.089 93.4279 198.873 90.209C205.759 87.4392 215.04 84.894 219.455 78.6807C221.177 76.2104 219.455 71.7189 216.312 71.1949Z" fill="#ED9936"></path><path d="M233.152 88.3372C228.811 86.0914 224.32 87.2892 219.605 87.8132C215.189 88.3372 210.773 89.6847 206.582 91.1818C197.376 94.3259 188.17 97.5448 179.264 101.512C170.806 105.18 162.499 109.223 154.266 113.34C146.631 117.158 136.453 120.751 132.112 128.611C131.064 130.558 131.812 133.926 134.432 134.301C143.189 135.498 151.272 130.707 159.28 127.563C167.887 124.195 176.569 121.125 185.251 118.131C194.008 115.062 202.69 111.768 211.447 108.923C215.638 107.576 219.979 106.079 224.021 104.207C228.063 102.261 232.928 100.315 235.248 96.3471C236.67 93.6522 235.921 89.8344 233.152 88.3372Z" fill="#ED9936"></path><path d="M207.256 53.4531C202.99 53.0788 199.023 54.6509 194.757 55.9235C190.79 57.1212 186.898 58.843 183.231 60.4899C175.222 64.158 167.139 67.9009 159.505 71.9433C152.245 75.7611 145.135 79.8034 138.099 83.8458C131.588 87.5887 122.756 91.706 119.762 97.0958C119.014 98.4433 120.211 100.165 122.606 99.8656C130.839 98.7427 137.575 94.326 144.461 90.9574C151.871 87.2893 159.505 83.771 167.064 80.2526C174.698 76.7342 182.183 73.0661 189.892 69.6226C193.559 67.9757 197.376 66.254 200.819 64.3077C204.262 62.3613 208.528 60.2653 210.1 57.4955C211.223 55.7738 210.025 53.7526 207.256 53.4531Z" fill="#ED9936"></path><path d="M144.686 51.8065C144.386 51.1328 144.311 50.9831 143.712 50.3093C143.563 50.0848 143.338 50.0099 143.114 49.7853C142.44 49.2613 141.617 48.887 140.719 48.8122C140.419 48.7373 140.195 48.7373 139.895 48.7373C139.072 48.7373 138.773 48.887 138.099 49.1116C137.575 49.2613 137.051 49.6356 136.677 50.0099C136.527 50.1596 136.378 50.3093 136.303 50.5339C135.854 51.0579 135.629 51.582 135.405 52.2557C135.18 53.0791 135.18 54.0523 135.405 54.8009C135.629 55.5495 136.003 56.2232 136.527 56.7472C137.051 57.2712 137.65 57.6455 138.324 57.8701C138.773 58.1696 139.297 58.3941 139.821 58.5438C140.569 58.7684 141.317 58.7684 141.991 58.5438C142.515 58.3941 143.039 58.1695 143.413 57.7953C143.862 57.4958 144.236 57.1215 144.461 56.5975C144.835 55.9238 145.06 55.2501 145.06 54.5015C145.06 54.2769 145.06 54.0523 145.06 53.9026C145.135 53.0791 144.985 52.5551 144.686 51.8065Z" fill="#F1E892"></path><path d="M131.138 74.9379C131.138 74.6384 131.139 74.339 131.064 74.0396C130.989 72.8418 130.465 71.6441 129.642 70.8955C129.567 70.8207 129.567 70.8206 129.492 70.7458C129.417 70.6709 129.342 70.5961 129.267 70.5212C128.519 69.7726 127.546 69.1738 126.498 68.9492C125.375 68.6498 124.253 68.6498 123.205 68.9492C122.906 69.024 122.681 69.0989 122.382 69.2486C122.082 69.3235 121.858 69.4732 121.558 69.6229C121.334 69.7726 120.436 70.4464 120.211 70.6709C119.987 70.8955 119.837 71.1201 119.687 71.3447C119.463 71.5692 119.313 71.7938 119.163 72.0184C118.939 72.5424 118.714 72.9916 118.565 73.5156V73.5904C118.49 73.8899 118.34 75.0127 118.34 75.3122C118.34 75.6116 118.415 76.0608 118.49 76.2853C118.565 76.8094 118.565 76.8842 118.639 77.2585L119.313 78.7557C119.313 78.7557 119.313 78.8305 119.388 78.8305C119.687 79.2797 120.062 79.654 120.361 80.1031C120.96 80.702 121.633 81.1512 122.382 81.4506C122.906 81.75 123.429 81.8997 123.953 81.8997C124.777 82.1243 125.675 82.0495 126.498 81.75C127.247 81.6003 128.07 81.1511 128.743 80.6271C129.417 80.1031 129.941 79.5791 130.315 78.8305C130.764 78.1568 130.989 77.3334 131.064 76.5099C131.213 75.911 131.213 75.4619 131.138 74.9379Z" fill="#F1E892"></path><path d="M126.274 52.9292C125.675 50.7583 123.954 49.4857 121.858 48.8119C119.313 48.0633 116.319 50.0845 116.394 52.8543C116.394 52.9292 116.319 53.004 116.319 53.1537C116.17 54.2766 116.394 55.3995 116.918 56.3727C117.592 57.5704 118.714 58.3939 119.912 58.6933C120.436 58.9179 120.96 58.9927 121.558 59.0676C124.702 59.2173 127.097 55.9235 126.274 52.9292Z" fill="#F1E892"></path><path d="M134.806 31.4447C134.731 31.3699 134.656 31.2202 134.581 31.1453C134.058 30.6961 133.459 30.3967 132.785 30.247C131.213 30.0224 129.716 30.9956 129.267 32.4928C129.118 33.0168 129.043 33.5408 129.118 34.0648C129.193 35.038 129.342 35.4871 129.791 36.3854C130.24 37.5083 131.812 38.2569 132.935 38.1821C133.908 38.1072 134.806 37.8078 135.554 37.134C136.228 36.4603 136.602 35.4871 136.602 34.514C136.527 33.4659 135.854 31.9687 134.806 31.4447Z" fill="#F1E892"></path><path d="M113.4 30.322C113.325 29.0494 112.876 27.7769 111.903 26.8785C111.08 26.0551 110.107 25.6059 108.984 25.4562C108.311 25.3813 107.637 25.3065 106.964 25.5311C106.29 25.6808 105.766 26.0551 105.242 26.5042C104.718 26.8785 104.194 27.4026 103.895 28.0014C103.521 28.6003 103.371 29.1992 103.296 29.8729C103.147 30.5466 103.147 31.2203 103.371 31.8192C103.596 32.6427 104.045 33.3913 104.644 33.9901C104.868 34.2147 105.093 34.3644 105.317 34.589C105.542 34.8136 105.766 34.9633 106.065 35.113C106.589 35.4873 107.188 35.637 107.862 35.7119C108.535 35.8616 109.134 35.8616 109.808 35.637C110.781 35.3376 111.679 34.7387 112.278 33.9153C112.876 33.1667 113.251 32.1935 113.325 31.2204C113.4 30.9209 113.4 30.6215 113.4 30.322Z" fill="#F1E892"></path><path d="M153.891 33.3912C153.143 32.6426 151.871 32.0438 150.748 32.1186C149.625 32.1935 148.428 32.5678 147.604 33.3912C147.53 33.4661 147.53 33.4661 147.455 33.541C146.856 33.9152 146.407 34.4393 146.033 34.9633C145.733 35.4124 145.584 35.9364 145.584 36.4604C145.434 36.9845 145.509 37.5085 145.658 38.1074C145.733 38.2571 145.733 38.3319 145.808 38.4816C145.808 38.5565 145.808 38.6314 145.883 38.7062C145.958 39.0056 146.182 39.5297 146.332 39.8291C146.631 40.428 147.006 40.7274 147.53 41.1765C148.053 41.5508 148.652 41.9251 149.251 42C149.625 42.0749 150.149 42.1497 150.523 42.1497C150.598 42.1497 150.673 42.1497 150.748 42.1497C151.347 42.1497 151.945 42.0749 152.469 41.7754C152.993 41.6257 153.517 41.2514 153.891 40.8771C154.715 39.9788 155.164 38.9308 155.164 37.7331C155.164 37.3588 155.164 36.9845 155.164 36.5353C155.239 35.4124 154.715 34.1398 153.891 33.3912Z" fill="#F1E892"></path></svg>