<svg xmlns="http://www.w3.org/2000/svg" width="164" height="138" viewBox="0 0 164 138" fill="none"><path d="M130.126 67.6513C129.715 54.5671 129.305 41.4829 129.657 28.4574C129.833 19.363 130.067 7.80439 120.623 2.99317C112.117 -1.34867 101.381 0.29419 92.1127 0.352864C71.8741 0.528884 51.6356 0.704876 31.397 0.763549C21.9524 0.822222 13.329 8.8605 13.5636 18.6003C14.2089 40.3681 9.69192 63.0747 10.1026 85.1946C10.3372 100.098 6.05485 130.315 26.2934 134.715C28.9919 136.417 32.101 137.414 35.1514 137.297C62.7228 136.417 87.1851 138.177 114.756 137.003C131.299 136.299 131.006 119.108 131.006 106.786C131.065 93.7609 130.537 80.6768 130.126 67.6513Z" fill="#F1E892"></path><path d="M156.7 59.4373C154.412 55.0368 151.714 50.9884 148.722 47.4679C140.451 37.7282 128.953 30.394 115.812 33.5623C113.583 33.0343 111.295 32.8583 108.949 33.1516C92.2301 35.3812 92.758 56.6797 91.5848 69.3531C90.1769 85.1363 85.0146 106.083 100.795 116.644C116.458 127.088 139.864 121.455 152.711 109.486C167.142 96.0495 165.089 75.6312 156.7 59.4373Z" fill="#ED9936"></path><path d="M13.0944 17.016C12.8598 16.9573 12.6838 16.8986 12.4491 16.7813C8.87071 15.5491 0.599304 13.4956 0.0126795 19.4802C-0.104645 20.8884 0.599304 22.4139 1.83122 23.118C2.53517 23.5287 3.4151 23.6461 4.23638 23.7634C7.05218 24.1154 9.9853 24.4088 12.7424 23.7047C13.6224 23.47 14.4436 23.1767 15.1476 22.5899C15.8515 22.0032 16.3208 21.1818 16.3208 20.3017C16.3208 19.3629 15.7342 18.5415 14.9716 17.9548C14.4437 17.544 13.7984 17.2507 13.0944 17.016Z" fill="#418D5B"></path><path d="M47.2945 17.3681C47.0012 17.3681 46.6492 17.3681 46.3559 17.3681C43.8334 17.3094 41.2523 17.192 38.7298 16.9573C36.6766 16.7813 34.9167 18.8349 34.9167 20.7711C34.9167 25.465 43.5401 26.1691 46.7079 25.289C47.6465 25.0543 48.3505 24.5262 48.8198 23.8222C51.5769 22.5313 51.1076 17.4854 47.2945 17.3681Z" fill="#418D5B"></path><path d="M28.4639 25.2301C26.176 24.35 22.8323 23.8219 20.4858 24.526C18.4326 25.1714 17.0833 27.1076 17.3766 29.2785C17.67 31.0974 19.1365 32.8576 21.0724 33.0336H21.131C24.5335 33.7377 33.9781 33.7964 31.6903 27.8704C31.221 26.6969 29.9891 25.8168 28.4639 25.2301Z" fill="#418D5B"></path><path d="M16.8487 38.2554C16.4968 38.0794 16.0861 37.9034 15.6755 37.786C12.2144 36.6712 5.17491 37.1993 5.3509 42.2452C5.40956 43.9467 6.7588 45.4136 8.28402 46.1177C11.5105 47.5258 19.4299 47.3498 19.8405 42.4799C19.9579 41.3651 19.4299 40.1916 18.6086 39.4289C18.1393 38.9595 17.494 38.5488 16.8487 38.2554Z" fill="#418D5B"></path><path d="M45.476 38.8427L45.4173 38.784C42.6602 36.7891 40.5484 36.3784 37.1459 36.7305C35.8554 36.8478 34.7994 37.3759 34.0368 38.08C32.8049 38.784 31.8076 40.1335 31.6903 41.4243C31.1624 45.9422 35.738 46.4116 39.0818 47.057C41.7216 47.5264 46.1213 47.1156 47.5879 44.4753C48.9371 42.0697 47.4119 40.3095 45.476 38.8427Z" fill="#418D5B"></path><path d="M32.1596 50.636C31.9249 50.5186 31.749 50.4013 31.5143 50.3426C27.9359 48.7584 20.0165 47.8196 19.0192 53.2176C18.7259 54.6844 19.3125 56.2686 20.4858 57.1487C21.3657 57.7941 22.4803 57.9701 23.5362 58.1462C25.7654 58.4395 28.0532 58.4395 30.3411 58.2635C31.1623 58.2048 32.0423 58.0288 32.7462 57.5594C33.8608 56.7967 34.2128 55.2712 34.0955 53.9217C34.0368 53.1003 33.8021 52.2788 33.2742 51.6334C33.0395 51.164 32.6289 50.8706 32.1596 50.636Z" fill="#418D5B"></path><path d="M61.4909 47.8782C61.3736 47.8782 61.2563 47.8782 61.139 47.8782C58.0298 48.1129 53.5715 48.1716 53.0435 51.868C52.4569 56.0338 57.7365 57.266 61.2563 57.0313C63.0748 56.9139 65.0107 55.8578 65.4213 54.0976C65.48 53.9803 65.48 53.8042 65.48 53.6869C65.832 50.9879 65.304 47.8196 61.4909 47.8782Z" fill="#418D5B"></path><path d="M50.345 60.3759C47.2946 58.2636 38.6125 58.381 38.8472 63.6616C39.1405 70.3503 51.577 70.8784 51.9876 63.7789C52.1049 62.2534 51.4596 61.1386 50.345 60.3759Z" fill="#418D5B"></path></svg>