<svg xmlns="http://www.w3.org/2000/svg" width="351" height="244" viewBox="0 0 351 244" fill="none"><path d="M169.564 2.58247C264.878 -17.7033 313.754 152.453 262.218 213.975C102.955 334.914 -12.863 54.9042 169.564 2.58247Z" fill="#F1E892"></path><path d="M206.692 169.857C208.687 165.755 211.236 162.097 214.007 158.439C215.337 156.776 216.556 155.003 217.997 153.451C218.108 153.34 218.108 153.229 218.219 153.118C216.667 151.677 215.337 149.349 214.229 147.686C211.679 143.696 209.906 139.04 210.128 134.163C210.571 119.641 226.42 108.223 241.382 102.903C245.261 96.1406 250.803 90.3764 258.561 86.4966C266.319 82.6168 275.961 80.2889 283.387 86.3857C286.823 89.2678 288.928 93.0368 290.258 97.36C291.034 99.7987 291.477 102.237 292.142 104.676C293.472 104.454 294.802 104.122 296.132 103.9C300.344 103.013 304.555 101.905 308.878 101.129C319.296 99.3553 329.492 100.353 337.805 107.447C350.993 118.865 355.427 142.144 343.014 155.668C341.794 156.998 334.923 162.319 330.822 164.536C333.926 168.526 337.694 171.852 340.686 175.953C351.548 190.586 354.762 212.313 340.797 226.169C328.495 238.363 305.22 242.021 290.591 232.377C290.369 232.266 289.261 231.49 288.153 230.603C285.382 232.487 282.279 234.704 281.392 235.148C272.525 239.804 262.107 241.688 252.465 238.473C243.709 235.591 236.395 228.94 233.402 220.072C232.959 218.853 232.405 217.412 232.405 216.192C232.405 215.749 232.294 215.527 232.294 215.195C230.521 214.862 228.304 214.973 226.42 214.862C215.78 214.086 204.476 210.982 201.151 199.232C198.602 189.81 202.481 178.503 206.692 169.857Z" fill="#8CB13B"></path><path d="M30.0276 106.339C41.3323 104.455 53.6345 111.549 63.8309 115.983C75.2464 120.971 86.7729 125.96 97.9667 131.391C109.161 136.712 120.133 142.809 131.105 148.573C136.203 151.234 141.301 153.894 146.4 156.444C151.719 159.104 158.148 161.321 162.137 165.866C164.576 168.526 163.024 173.404 159.034 173.293C152.939 173.182 147.175 169.968 141.634 167.64C136.314 165.534 130.994 163.427 125.563 161.432C113.926 157.109 102.067 153.229 90.541 148.684C78.9038 144.139 67.3775 139.262 55.8512 134.495C45.6548 130.394 31.9118 126.625 25.3728 117.424C22.8237 113.766 25.3728 107.115 30.0276 106.339Z" fill="#ED9936"></path><path d="M5.09054 131.724C11.5187 128.398 18.1685 130.172 25.1508 130.948C31.6898 131.724 38.2288 133.719 44.4353 135.936C58.0675 140.592 71.6996 145.359 84.8884 151.234C97.4123 156.665 109.714 162.651 121.906 168.748C133.211 174.402 148.283 179.722 154.712 191.362C156.263 194.244 155.155 199.232 151.276 199.787C138.309 201.56 126.339 194.466 114.48 189.81C101.735 184.822 88.8783 180.277 76.022 175.843C63.0548 171.298 50.1985 166.42 37.2314 162.208C31.0248 160.213 24.5966 157.996 18.6118 155.224C12.6269 152.342 5.42297 149.46 1.98723 143.585C-0.118548 139.594 0.98981 133.941 5.09054 131.724Z" fill="#ED9936"></path><path d="M43.4384 80.0673C49.7557 79.5131 55.6298 81.8409 61.9472 83.7254C67.8212 85.499 73.5842 88.0486 79.0149 90.4873C90.8738 95.919 102.844 101.462 114.148 107.448C124.899 113.101 135.428 119.087 145.846 125.073C155.488 130.615 168.566 136.712 172.999 144.693C174.107 146.689 172.334 149.238 168.787 148.795C156.596 147.132 146.621 140.592 136.425 135.604C125.453 130.172 114.148 124.962 102.954 119.752C91.6497 114.542 80.5667 109.11 69.1511 104.011C63.7204 101.572 58.068 99.0228 52.9698 96.1407C47.8716 93.2586 41.5544 90.1547 39.2269 86.0533C37.5645 83.5037 39.3377 80.5107 43.4384 80.0673Z" fill="#ED9936"></path><path d="M136.094 77.6287C136.537 76.631 136.648 76.4093 137.534 75.4116C137.756 75.0791 138.089 74.9682 138.421 74.6357C139.419 73.8597 140.638 73.3054 141.968 73.1946C142.411 73.0837 142.743 73.0837 143.187 73.0837C144.406 73.0837 144.849 73.3054 145.847 73.638C146.623 73.8597 147.398 74.414 147.953 74.9682C148.174 75.1899 148.396 75.4116 148.507 75.7442C149.172 76.5201 149.504 77.2961 149.837 78.2938C150.169 79.5131 150.169 80.9542 149.837 82.0627C149.504 83.1712 148.95 84.1689 148.174 84.9449C147.398 85.7208 146.512 86.2751 145.514 86.6076C144.849 87.051 144.073 87.3836 143.298 87.6053C142.189 87.9378 141.081 87.9378 140.084 87.6053C139.308 87.3836 138.532 87.051 137.978 86.4968C137.313 86.0534 136.759 85.4991 136.426 84.7231C135.872 83.7255 135.539 82.7278 135.539 81.6193C135.539 81.2868 135.539 80.9542 135.539 80.7325C135.429 79.5131 135.65 78.7372 136.094 77.6287Z" fill="#F1E892"></path><path d="M156.152 111.882C156.152 111.438 156.152 110.995 156.263 110.552C156.374 108.778 157.15 107.004 158.369 105.896C158.48 105.785 158.48 105.785 158.591 105.674C158.702 105.563 158.812 105.452 158.923 105.342C160.032 104.233 161.472 103.346 163.024 103.014C164.686 102.57 166.349 102.57 167.901 103.014C168.344 103.125 168.676 103.235 169.12 103.457C169.563 103.568 169.895 103.79 170.339 104.011C170.671 104.233 172.001 105.231 172.334 105.563C172.666 105.896 172.888 106.228 173.109 106.561C173.442 106.893 173.664 107.226 173.885 107.559C174.218 108.335 174.55 109 174.772 109.776V109.886C174.883 110.33 175.104 111.993 175.104 112.436C175.104 112.879 174.994 113.545 174.883 113.877C174.772 114.653 174.772 114.764 174.661 115.318L173.664 117.535C173.664 117.535 173.664 117.646 173.553 117.646C173.11 118.311 172.555 118.865 172.112 119.53C171.225 120.417 170.228 121.082 169.12 121.526C168.344 121.969 167.568 122.191 166.792 122.191C165.573 122.523 164.243 122.413 163.024 121.969C161.916 121.747 160.696 121.082 159.699 120.306C158.702 119.53 157.926 118.755 157.372 117.646C156.707 116.648 156.374 115.429 156.263 114.21C156.042 113.323 156.042 112.658 156.152 111.882Z" fill="#F1E892"></path><path d="M163.358 79.2914C164.245 76.0767 166.794 74.1923 169.897 73.1946C173.665 72.0861 178.099 75.0791 177.988 79.1806C177.988 79.2914 178.099 79.4023 178.099 79.624C178.32 81.2867 177.988 82.9495 177.212 84.3906C176.215 86.1642 174.552 87.3836 172.779 87.827C172.003 88.1595 171.227 88.2704 170.34 88.3812C165.686 88.6029 162.139 83.7255 163.358 79.2914Z" fill="#F1E892"></path><path d="M150.723 47.477C150.834 47.3661 150.944 47.1444 151.055 47.0336C151.831 46.3685 152.718 45.9251 153.715 45.7034C156.043 45.3708 158.259 46.8119 158.924 49.0289C159.146 49.8049 159.257 50.5808 159.146 51.3568C159.035 52.7979 158.813 53.463 158.148 54.7932C157.483 56.456 155.156 57.5645 153.494 57.4536C152.053 57.3428 150.723 56.8994 149.615 55.9017C148.617 54.904 148.063 53.463 148.063 52.0219C148.174 50.47 149.171 48.2529 150.723 47.477Z" fill="#F1E892"></path><path d="M182.422 45.8145C182.532 43.93 183.197 42.0456 184.638 40.7153C185.857 39.496 187.298 38.8308 188.961 38.6091C189.958 38.4983 190.955 38.3874 191.953 38.72C192.95 38.9417 193.726 39.496 194.502 40.1611C195.278 40.7153 196.054 41.4913 196.497 42.3781C197.051 43.2649 197.273 44.1517 197.384 45.1494C197.605 46.1471 197.605 47.1447 197.273 48.0315C196.94 49.2509 196.275 50.3594 195.389 51.2462C195.056 51.5788 194.724 51.8005 194.391 52.133C194.059 52.4656 193.726 52.6873 193.283 52.909C192.507 53.4632 191.62 53.6849 190.623 53.7958C189.626 54.0175 188.739 54.0175 187.741 53.6849C186.301 53.2415 184.971 52.3547 184.084 51.1354C183.197 50.0268 182.643 48.5858 182.532 47.1447C182.422 46.7013 182.422 46.2579 182.422 45.8145Z" fill="#F1E892"></path><path d="M122.462 50.3594C123.57 49.2509 125.454 48.3641 127.117 48.475C128.779 48.5858 130.552 49.14 131.772 50.3594C131.882 50.4703 131.882 50.4703 131.993 50.5811C132.88 51.1354 133.545 51.9113 134.099 52.6873C134.542 53.3524 134.764 54.1284 134.764 54.9043C134.986 55.6803 134.875 56.4562 134.653 57.3431C134.542 57.5648 134.542 57.6756 134.431 57.8973C134.431 58.0082 134.431 58.119 134.321 58.2298C134.21 58.6733 133.877 59.4492 133.656 59.8926C133.212 60.7794 132.658 61.2228 131.882 61.8879C131.107 62.4422 130.22 62.9964 129.333 63.1073C128.779 63.2181 128.003 63.329 127.449 63.329C127.338 63.329 127.227 63.329 127.117 63.329C126.23 63.329 125.343 63.2182 124.568 62.7748C123.792 62.5531 123.016 61.9988 122.462 61.4445C121.243 60.1143 120.578 58.5624 120.578 56.7888C120.578 56.2345 120.578 55.6803 120.578 55.0152C120.467 53.3524 121.243 51.4679 122.462 50.3594Z" fill="#F1E892"></path></svg>