<svg xmlns="http://www.w3.org/2000/svg" width="139" height="114" viewBox="0 0 139 114" fill="none"><g opacity="0.3"><path d="M27.7578 110.115C27.2604 110.239 26.8873 110.363 26.3899 110.612C18.8043 113.224 1.27042 117.577 0.0268783 104.891C-0.22183 101.906 1.27042 98.6719 3.88185 97.1794C5.3741 96.3087 7.2394 96.06 8.98036 95.8113C14.9493 95.065 21.167 94.4431 27.0117 95.9356C28.877 96.4331 30.6179 97.055 32.1102 98.2988C33.6024 99.5426 34.5973 101.284 34.5973 103.149C34.5973 105.139 33.3537 106.881 31.7371 108.125C30.6179 108.995 29.25 109.617 27.7578 110.115Z" fill="white"></path><path d="M100.256 109.368C99.6345 109.368 98.8884 109.368 98.2666 109.368C92.9194 109.493 87.4478 109.741 82.1006 110.239C77.7482 110.612 74.0176 106.259 74.0176 102.154C74.0176 92.2041 92.2976 90.7116 99.0127 92.5772C101.002 93.0747 102.495 94.1941 103.489 95.6867C109.334 98.423 108.339 109.119 100.256 109.368Z" fill="white"></path><path d="M60.3386 92.7021C55.4888 94.5677 48.4006 95.6871 43.4265 94.1946C39.0741 92.8265 36.214 88.722 36.8357 84.12C37.4575 80.2643 40.5663 76.5331 44.67 76.1599H44.7944C52.0069 74.6674 72.0279 74.543 67.1781 87.1051C66.1833 89.5926 63.5718 91.4583 60.3386 92.7021Z" fill="white"></path><path d="M35.7167 65.0904C34.9705 65.4635 34.1001 65.8366 33.2296 66.0854C25.8927 68.4485 10.9702 67.3292 11.3433 56.6328C11.4676 53.0258 14.3278 49.9164 17.561 48.4238C24.4005 45.4388 41.1882 45.8119 42.0587 56.1352C42.3074 58.4984 41.1882 60.9859 39.4473 62.6028C38.4524 63.5979 37.0846 64.4685 35.7167 65.0904Z" fill="white"></path><path d="M96.4013 63.8463L96.277 63.9706C90.4323 68.1994 85.9556 69.0701 78.7431 68.3238C76.0073 68.0751 73.7689 66.9557 72.1523 65.4632C69.5409 63.9706 67.4269 61.11 67.1781 58.3737C66.059 48.7966 75.7586 47.8016 82.8467 46.4335C88.4427 45.4385 97.7692 46.3091 100.878 51.9061C103.738 57.0056 100.505 60.7369 96.4013 63.8463Z" fill="white"></path><path d="M68.1729 38.8465C67.6755 39.0952 67.3024 39.344 66.805 39.4683C59.2194 42.8265 42.4316 44.8165 40.3176 33.3738C39.6959 30.2644 40.9394 26.9062 43.4265 25.0406C45.2918 23.6724 47.6545 23.2993 49.8929 22.9262C54.6183 22.3043 59.4681 22.3043 64.3179 22.6775C66.0589 22.8018 67.9242 23.1749 69.4164 24.1699C71.7792 25.7868 72.5253 29.0206 72.2766 31.8813C72.1522 33.6226 71.6548 35.3639 70.5356 36.732C70.0382 37.727 69.1677 38.3489 68.1729 38.8465Z" fill="white"></path><path d="M130.35 44.6921C130.101 44.6921 129.853 44.6921 129.604 44.6921C123.013 44.1946 113.562 44.0703 112.443 36.2345C111.2 27.4037 122.391 24.7918 129.853 25.2893C133.708 25.5381 137.811 27.7769 138.682 31.5082C138.806 31.757 138.806 32.1301 138.806 32.3789C139.552 38.1002 138.433 44.8165 130.35 44.6921Z" fill="white"></path><path d="M106.723 18.1998C100.256 22.6773 81.8518 22.4286 82.3492 11.2347C82.971 -2.94434 109.334 -4.06375 110.205 10.9859C110.453 14.2197 109.085 16.5828 106.723 18.1998Z" fill="white"></path></g></svg>