<svg xmlns="http://www.w3.org/2000/svg" width="269" height="238" viewBox="0 0 269 238" fill="none"><path d="M90.9151 105.399C92.3115 94.4246 93.9075 83.3505 102.187 75.0699C110.665 66.5898 121.937 65.2928 133.108 63.2975C153.856 59.6061 174.404 57.9101 195.451 57.7105C206.124 57.6108 216.498 58.4089 227.171 59.7059C239.44 61.2024 249.814 64.0956 257.793 74.5711C272.257 93.2274 266.671 119.566 267.668 141.415C268.666 164.361 271.359 203.17 241.136 208.258C222.582 211.451 203.231 214.444 184.379 214.244C166.325 214.045 148.27 212.349 130.315 210.254C117.648 208.857 104.182 207.859 95.6033 197.084C87.7232 187.108 87.8229 174.138 87.3242 162.066C86.7257 143.011 88.4214 124.255 90.9151 105.399Z" fill="#F3EAE2"></path><path d="M0.0449569 83.8495C0.743192 74.0724 1.4414 64.3951 2.13964 54.6179C2.93762 43.1448 2.43898 30.0754 11.2168 21.1961C26.578 5.73232 54.6071 6.43069 74.7562 5.43302C98.7954 4.23582 122.835 2.63956 146.974 1.84143C166.125 1.14306 197.147 -4.6434 213.106 8.72532C222.682 16.7066 226.872 20.1985 228.867 33.4674C230.862 46.7364 229.964 60.2048 229.066 73.4738C228.268 85.7451 225.774 102.606 211.112 105.299C185.377 109.988 159.143 115.376 133.009 115.575C96.3017 115.875 60.2927 110.986 23.8847 107.494C11.8152 106.497 -0.852774 97.6173 0.0449569 83.8495Z" fill="#ED9936"></path><path d="M57.3236 162.573C62.2112 155.29 68.994 149.903 75.6771 144.316C82.6594 138.43 89.2429 132.843 98.4197 131.047C116.973 127.356 132.234 133.242 139.516 151.599C141.81 157.485 143.406 163.671 143.506 169.956C143.605 178.636 140.813 186.916 138.02 194.998C134.229 205.573 130.638 219.141 122.459 227.322C115.975 233.807 106.499 237.299 97.4222 237.199C80.864 237.099 67.1986 224.528 59.3185 210.96C50.4409 196.095 47.0495 177.538 57.3236 162.573ZM75.1783 200.485C75.8766 204.076 77.1733 207.468 79.0685 210.461C83.258 216.846 91.4373 217.645 97.9209 214.851C107.696 210.661 116.075 202.979 119.367 192.703C123.656 179.434 126.748 152.297 109.093 146.91C101.512 144.615 95.0283 148.506 90.2404 153.894C79.5674 166.165 71.8867 183.923 75.1783 200.485Z" fill="#8CB13B"></path></svg>