<svg xmlns="http://www.w3.org/2000/svg" width="321" height="253" viewBox="0 0 321 253" fill="none"><path d="M224.574 98.7952C224.351 88.2916 224.239 77.7881 224.463 67.1728C224.574 58.1219 222.228 51.7528 213.849 47.2832C199.102 39.5731 181.563 42.3667 165.699 43.2606C147.041 44.378 128.273 44.9366 109.504 44.8249C94.1985 44.7132 69.6203 38.0088 60.571 54.9932C41.4671 91.0852 49.1757 136.116 48.1702 175.449C47.7234 192.433 44.3718 212.099 48.9523 228.749C52.639 242.046 63.364 251.32 75.9883 251.99C97.3266 253.108 118.665 252.437 139.892 252.214C158.213 251.99 177.764 255.343 195.304 248.862C250.381 228.413 225.356 141.48 224.574 98.7952Z" fill="#F3EAE2"></path><path d="M320.988 100.918C319.982 72.8715 317.301 45.1601 313.391 17.3369C310.933 -0.0945281 294.064 -0.429747 279.987 1.13461C234.406 6.38638 188.824 1.24635 143.131 0.0172119C133.97 -0.206268 124.809 1.69327 118.33 8.84461C112.632 15.102 110.286 22.9239 111.068 30.7456C113.302 54.8814 106.487 79.4642 111.627 103.376C115.09 119.355 129.39 127.177 144.807 127.401C154.75 127.512 164.805 127.065 174.748 126.954C215.413 126.283 256.191 125.724 296.857 125.166C309.481 124.942 321.435 114.215 320.988 100.918Z" fill="#8CB13B"></path><path d="M107.493 132.205C100.12 114.774 88.1657 95.4429 66.2687 98.4599C66.157 98.4599 65.9336 98.46 65.8219 98.5717C50.7398 96.0017 34.764 96.7838 21.6929 105.723C5.60538 116.897 1.47176 134.775 0.242855 153.212C-0.762615 168.074 1.36005 183.941 6.49912 197.908C9.51553 206.289 12.8671 213.664 19.1233 220.033C26.9437 227.966 37.7804 230.76 48.6172 231.095C64.0344 231.542 82.3563 229.531 95.8743 221.485C111.85 212.099 116.766 193.886 116.654 176.566C116.766 161.146 113.414 146.173 107.493 132.205Z" fill="#ED9936"></path><path d="M174.19 114.438C174.078 110.863 173.966 107.287 173.854 103.823C173.743 101.924 173.743 100.024 173.631 98.2362C173.519 96.3367 173.631 94.2137 173.072 92.4258C172.29 89.6323 167.933 89.4089 167.151 92.4258C166.369 95.5545 166.816 99.1302 166.704 102.371C166.704 105.611 166.593 108.852 166.593 112.092C166.481 118.461 166.481 124.83 166.369 131.199C166.257 144.049 166.034 156.9 165.699 169.75C165.587 173.325 165.475 176.901 165.364 180.365C165.252 182.264 165.252 184.164 165.14 185.952C165.029 188.075 164.693 190.31 166.146 192.209C167.375 193.997 170.279 194.891 171.843 192.992C173.296 191.315 173.519 189.751 173.631 187.628C173.631 185.952 173.743 184.276 173.743 182.6C173.854 179.359 173.966 176.119 173.966 172.878C174.078 166.397 174.19 159.917 174.301 153.436C174.748 140.362 174.636 127.4 174.19 114.438Z" fill="#418D5B"></path><path d="M197.874 207.07C197.874 205.506 197.874 203.942 197.874 202.377C197.874 199.36 197.874 196.343 197.874 193.326C197.874 187.404 197.874 181.482 197.762 175.448C197.651 163.492 197.651 151.424 197.427 139.468C197.427 136.004 197.315 132.54 197.315 129.188C197.315 125.612 197.315 122.148 196.645 118.573C196.422 117.567 195.416 116.561 194.411 116.338C193.852 116.226 193.405 116.226 192.847 116.338H192.735C191.729 116.561 190.724 117.567 190.501 118.573C189.383 124.495 189.942 130.864 189.83 137.01C189.83 142.932 189.83 148.854 189.83 154.888C189.83 166.844 189.942 178.912 189.942 190.868C189.942 194.332 189.942 197.796 190.054 201.148C190.054 202.824 190.054 204.5 190.054 206.176C190.054 208.188 189.83 210.199 190.836 212.099C192.176 214.445 195.751 214.445 197.092 212.099C197.986 210.423 197.874 208.858 197.874 207.07Z" fill="#418D5B"></path><path d="M215.19 125.948C215.078 112.539 214.631 99.2424 213.961 85.8337C213.737 82.0345 213.626 78.3471 213.402 74.548C213.29 72.6484 213.179 70.7488 213.067 68.961C212.955 66.7262 213.067 64.4914 211.279 62.8153C209.827 61.3627 207.816 61.9214 206.699 63.374C205.47 64.9383 205.805 66.7261 205.917 68.6257C206.029 70.3018 206.14 71.9779 206.252 73.654C206.476 77.0062 206.699 80.3584 206.811 83.7106C207.146 90.415 207.481 97.1194 207.704 103.712C208.151 117.121 208.375 130.418 208.375 143.827C208.375 147.514 208.263 151.09 208.375 154.777C208.375 158.688 208.263 162.599 209.38 166.398C210.051 168.633 212.955 168.409 213.737 166.398C214.854 163.158 214.966 159.805 215.078 156.341C215.19 152.989 215.301 149.637 215.301 146.285C215.301 139.469 215.301 132.653 215.19 125.948Z" fill="#418D5B"></path></svg>