<svg xmlns="http://www.w3.org/2000/svg" width="143" height="149" viewBox="0 0 143 149" fill="none"><path d="M5.0007 103.183C4.90695 86.8203 14.2821 72.4208 28.1574 65.7821C34.1575 62.603 41.0952 60.8264 48.3141 61.0134C60.4081 61.2939 70.9084 66.3431 78.1273 74.1039C85.815 81.0231 90.5963 90.8409 89.94 101.968C89.7525 105.147 89.19 108.233 88.3462 111.131C87.1275 130.954 71.5646 148.906 50.5642 149C42.8765 149 36.1263 146.849 30.5012 143.109C15.0321 137.032 5.09445 120.107 5.0007 103.183Z" fill="#8CB13B"></path><path d="M0.0860187 36.0173C-1.03746 22.0954 8.98018 6.21119 22.2747 1.53939C35.7564 -3.22586 49.051 3.59499 56.3536 14.8073C59.6304 12.0042 63.5626 10.5093 67.7756 10.229C68.7119 9.76178 69.6481 9.38802 70.6779 9.01428C75.5463 6.11776 81.2573 4.71624 87.062 5.6506C101.48 8.07994 111.872 22.4691 109.251 36.8583C108.97 38.6335 108.408 40.4088 107.846 41.9973C108.034 43.2119 108.127 44.4266 108.127 45.6413C112.153 46.1084 116.179 46.8559 120.017 48.3509C131.908 53.0227 140.521 63.9547 142.581 76.4752C146.045 97.7786 127.601 124.128 103.914 119.456C92.9603 117.307 85.1895 108.898 81.1637 98.8064C79.853 95.4427 78.6359 91.3315 77.8869 87.5941C76.7634 87.781 75.4527 87.9678 75.1718 88.0613C65.9967 89.7431 56.8217 91.8921 48.0211 87.5006C38.0034 82.4551 35.382 73.018 37.0672 63.7679C35.8501 63.0204 34.7266 62.1795 33.6031 61.2451C32.8541 61.3385 32.0115 61.432 31.1689 61.5254C15.7211 62.3663 1.49037 52.0884 0.0860187 36.0173Z" fill="#F1E892"></path></svg>