<svg xmlns="http://www.w3.org/2000/svg" width="226" height="244" viewBox="0 0 226 244" fill="none"><path d="M165.634 147.341C164.31 115.847 163.648 84.4479 167.146 52.5757C167.997 44.8204 159.487 36.6868 151.828 37.2543C127.148 39.335 102.279 40.6591 77.4103 39.5242C65.7795 39.0513 54.0543 38.2946 42.6127 36.1194C33.7241 34.417 21.9043 29.5936 13.5831 35.2682C2.14151 43.1181 -0.978957 46.2391 0.250306 61.2767C1.47957 76.4089 2.51976 91.6357 3.37079 106.862C5.54564 146.301 6.68033 185.739 4.60004 225.178C4.31637 231.325 9.51706 238.891 15.8525 239.931C62.4699 247.781 105.967 239.648 153.152 242.296C174.711 243.525 168.281 209.1 167.808 196.994C167.241 180.254 166.39 163.798 165.634 147.341Z" fill="#F3EAE2"></path><path d="M162.797 19.1903C143.034 8.40861 108.615 5.09841 97.2679 0.842473C85.4481 -3.50804 76.8432 10.0164 71.0751 17.9608C61.8084 30.634 54.2437 44.3476 45.828 57.5883C40.9109 65.3435 37.6014 78.5843 48.8538 83.3131C69.5622 92.1087 90.2705 100.904 111.073 109.7C117.22 112.253 123.177 115.658 129.985 115.28C162.324 113.767 165.539 69.3157 175.279 46.8066C180.763 34.1333 174.239 25.4324 162.797 19.1903Z" fill="#8CB13B"></path><path d="M225.395 151.692C224.166 131.831 214.71 111.308 192.772 108.565C181.52 107.146 172.253 112.632 164.499 120.292C155.327 126.061 147.1 136.087 142.278 143.085C133.2 156.231 127.243 173.728 127.81 189.806C128.567 209.289 141.143 228.109 162.608 226.88C172.537 226.312 181.52 221.867 190.124 217.328C198.54 212.883 206.01 207.397 211.873 199.831C222.274 186.401 226.435 168.526 225.395 151.692Z" fill="#ED9936"></path><path d="M49.8937 174.863L43.5583 182.429L42.2344 192.17L34.6697 185.834L24.9302 184.604L31.2656 177.038L32.5894 167.297L40.0596 173.634L49.8937 174.863Z" fill="#418D5B"></path><path d="M84.3133 212.977L74.5737 214.396L67.1035 220.922L65.6852 211.18L59.1606 203.709L68.9002 202.29L76.3703 195.764L77.7887 205.506L84.3133 212.977Z" fill="#418D5B"></path><path d="M40.6268 216.098L38.0736 221.584L38.8302 227.636L33.3457 224.988L27.2939 225.84L29.9416 220.26L29.0905 214.301L34.575 216.855L40.6268 216.098Z" fill="#418D5B"></path><path d="M73.0603 176.66L70.2235 176.944L67.9541 178.835L67.5759 175.903L65.7793 173.633L68.7106 173.35L70.98 171.553L71.2637 174.39L73.0603 176.66Z" fill="#418D5B"></path></svg>