<svg xmlns="http://www.w3.org/2000/svg" width="284" height="198" viewBox="0 0 284 198" fill="none"><path d="M146.942 1.35652C69.4684 -15.1323 29.7405 123.175 71.6305 173.182C201.084 271.484 295.224 43.885 146.942 1.35652Z" fill="#F1E892"></path><path d="M116.764 137.321C115.142 133.987 113.07 131.014 110.818 128.04C109.737 126.689 108.746 125.247 107.575 123.986C107.485 123.896 107.485 123.806 107.395 123.716C108.656 122.544 109.737 120.652 110.638 119.301C112.71 116.057 114.151 112.273 113.971 108.308C113.611 96.5045 100.729 87.224 88.567 82.899C85.414 77.4028 80.9097 72.7174 74.6037 69.5638C68.2977 66.4102 60.4602 64.5181 54.4244 69.4737C51.6317 71.8164 49.92 74.8799 48.839 78.3939C48.2084 80.3762 47.8481 82.3584 47.3076 84.3407C46.2266 84.1605 45.1456 83.8902 44.0645 83.71C40.6413 82.9892 37.218 82.0881 33.7046 81.4574C25.2366 80.0158 16.9487 80.8267 10.1922 86.5932C-0.527999 95.8738 -4.1315 114.795 5.95812 125.788C6.94907 126.869 12.5344 131.194 15.8676 132.996C13.3452 136.24 10.2822 138.943 7.84991 142.277C-0.978518 154.17 -3.59099 171.83 7.75984 183.093C17.7594 193.005 36.6775 195.978 48.5688 188.139C48.749 188.049 49.6498 187.418 50.5507 186.697C52.8028 188.229 55.3252 190.031 56.0459 190.392C63.2528 194.176 71.7209 195.708 79.5584 193.095C86.6752 190.752 92.6208 185.346 95.0531 178.138C95.4135 177.146 95.8639 175.975 95.8639 174.984C95.8639 174.624 95.954 174.443 95.954 174.173C97.3954 173.903 99.1971 173.993 100.729 173.903C109.377 173.272 118.566 170.749 121.268 161.198C123.34 153.54 120.187 144.349 116.764 137.321Z" fill="#8CB13B"></path><path d="M260.361 85.6928C251.172 84.161 241.172 89.9276 232.884 93.5317C223.606 97.5864 214.237 101.641 205.138 106.056C196.039 110.381 187.121 115.337 178.202 120.022C174.058 122.184 169.914 124.347 165.77 126.419C161.446 128.582 156.221 130.384 152.978 134.078C150.996 136.24 152.258 140.205 155.501 140.115C160.455 140.025 165.14 137.412 169.644 135.52C173.968 133.808 178.292 132.096 182.707 130.474C192.166 126.96 201.805 123.806 211.174 120.112C220.633 116.418 230.002 112.453 239.371 108.579C247.658 105.245 258.829 102.182 264.144 94.7031C266.216 91.7297 264.144 86.3235 260.361 85.6928Z" fill="#ED9936"></path><path d="M280.63 106.326C275.405 103.623 270 105.065 264.324 105.695C259.009 106.326 253.694 107.948 248.649 109.75C237.569 113.534 226.488 117.409 215.768 122.184C205.588 126.599 195.589 131.465 185.679 136.421C176.491 141.016 164.239 145.341 159.014 154.801C157.753 157.144 158.654 161.199 161.807 161.649C172.347 163.091 182.076 157.324 191.715 153.54C202.075 149.485 212.525 145.791 222.975 142.187C233.515 138.493 243.965 134.528 254.505 131.104C259.55 129.483 264.775 127.681 269.639 125.428C274.504 123.085 280.36 120.743 283.152 115.967C284.864 112.724 283.963 108.128 280.63 106.326Z" fill="#ED9936"></path><path d="M249.46 64.3381C244.325 63.8876 239.551 65.7797 234.416 67.3115C229.641 68.7531 224.957 70.8255 220.543 72.8078C210.904 77.2228 201.174 81.7279 191.986 86.5935C183.247 91.1887 174.689 96.0542 166.221 100.92C158.384 105.425 147.753 110.381 144.15 116.868C143.249 118.49 144.691 120.562 147.573 120.202C157.483 118.85 165.59 113.534 173.878 109.48C182.797 105.065 191.985 100.83 201.084 96.5949C210.273 92.36 219.282 87.945 228.56 83.8003C232.975 81.818 237.569 79.7457 241.713 77.403C245.857 75.0603 250.992 72.5375 252.884 69.2037C254.235 67.1313 252.794 64.6985 249.46 64.3381Z" fill="#ED9936"></path><path d="M174.149 62.3563C173.788 61.5454 173.698 61.3652 172.978 60.5543C172.797 60.284 172.527 60.1939 172.257 59.9235C171.446 59.2928 170.455 58.8423 169.374 58.7522C169.014 58.6621 168.744 58.6621 168.383 58.6621C167.392 58.6621 167.032 58.8423 166.221 59.1126C165.591 59.2928 164.96 59.7434 164.51 60.1939C164.329 60.3741 164.149 60.5543 164.059 60.8246C163.519 61.4553 163.248 62.086 162.978 62.897C162.708 63.8881 162.708 65.0594 162.978 65.9605C163.248 66.8615 163.699 67.6724 164.329 68.3031C164.96 68.9339 165.681 69.3844 166.491 69.6547C167.032 70.0151 167.663 70.2854 168.293 70.4656C169.194 70.7359 170.095 70.7359 170.906 70.4656C171.536 70.2854 172.167 70.0151 172.617 69.5646C173.158 69.2042 173.608 68.7536 173.878 68.1229C174.329 67.312 174.599 66.5011 174.599 65.6C174.599 65.3297 174.599 65.0594 174.599 64.8792C174.689 63.8881 174.509 63.2574 174.149 62.3563Z" fill="#F1E892"></path><path d="M157.843 90.1982C157.843 89.8378 157.843 89.4774 157.753 89.117C157.663 87.6754 157.032 86.2337 156.041 85.3327C155.951 85.2426 155.951 85.2426 155.861 85.1525C155.771 85.0624 155.681 84.9723 155.591 84.8822C154.69 83.9812 153.519 83.2603 152.258 82.99C150.907 82.6296 149.555 82.6296 148.294 82.99C147.934 83.0801 147.663 83.1702 147.303 83.3504C146.943 83.4405 146.673 83.6207 146.312 83.801C146.042 83.9812 144.961 84.7921 144.691 85.0624C144.42 85.3327 144.24 85.603 144.06 85.8733C143.79 86.1436 143.61 86.4139 143.429 86.6842C143.159 87.315 142.889 87.8556 142.709 88.4863V88.5764C142.619 88.9368 142.438 90.2883 142.438 90.6487C142.438 91.0092 142.529 91.5498 142.619 91.8201C142.709 92.4508 142.709 92.5409 142.799 92.9914L143.61 94.7935C143.61 94.7935 143.61 94.8836 143.7 94.8836C144.06 95.4242 144.511 95.8747 144.871 96.4153C145.592 97.1361 146.402 97.6767 147.303 98.0372C147.934 98.3976 148.564 98.5778 149.195 98.5778C150.186 98.8481 151.267 98.758 152.258 98.3976C153.159 98.2174 154.15 97.6767 154.96 97.046C155.771 96.4153 156.402 95.7846 156.852 94.8836C157.393 94.0727 157.663 93.0815 157.753 92.0904C157.933 91.3696 157.933 90.829 157.843 90.1982Z" fill="#F1E892"></path><path d="M151.987 63.7073C151.267 61.0943 149.195 59.5626 146.672 58.7516C143.609 57.8506 140.006 60.2834 140.096 63.6172C140.096 63.7073 140.006 63.7974 140.006 63.9776C139.826 65.3291 140.096 66.6807 140.727 67.852C141.537 69.2937 142.889 70.2848 144.33 70.6452C144.961 70.9155 145.591 71.0056 146.312 71.0957C150.096 71.2759 152.978 67.3114 151.987 63.7073Z" fill="#F1E892"></path><path d="M162.257 37.8485C162.167 37.7584 162.077 37.5782 161.987 37.4881C161.356 36.9475 160.635 36.5871 159.825 36.4069C157.933 36.1366 156.131 37.3079 155.59 39.11C155.41 39.7407 155.32 40.3714 155.41 41.0021C155.5 42.1734 155.681 42.7141 156.221 43.7953C156.762 45.1469 158.653 46.0479 160.005 45.9578C161.176 45.8677 162.257 45.5073 163.158 44.6963C163.969 43.8854 164.419 42.7141 164.419 41.5427C164.329 40.2813 163.518 38.4792 162.257 37.8485Z" fill="#F1E892"></path><path d="M136.493 36.4966C136.403 34.9648 135.862 33.4331 134.691 32.3519C133.7 31.3608 132.529 30.8201 131.178 30.6399C130.367 30.5498 129.556 30.4597 128.745 30.73C127.935 30.9102 127.304 31.3607 126.673 31.9014C126.043 32.3519 125.412 32.9826 125.052 33.7034C124.601 34.4242 124.421 35.1451 124.331 35.956C124.151 36.7669 124.151 37.5778 124.421 38.2987C124.691 39.2898 125.232 40.1908 125.953 40.9117C126.223 41.182 126.493 41.3622 126.763 41.6325C127.034 41.9028 127.304 42.083 127.664 42.2632C128.295 42.7137 129.016 42.8939 129.826 42.984C130.637 43.1642 131.358 43.1642 132.169 42.8939C133.34 42.5335 134.421 41.8127 135.141 40.8215C135.862 39.9205 136.313 38.7492 136.403 37.5778C136.493 37.2174 136.493 36.857 136.493 36.4966Z" fill="#F1E892"></path><path d="M185.229 40.1907C184.328 39.2897 182.797 38.5689 181.446 38.659C180.094 38.7491 178.653 39.1996 177.662 40.1907C177.572 40.2808 177.572 40.2808 177.482 40.3709C176.761 40.8215 176.22 41.4522 175.77 42.0829C175.41 42.6235 175.23 43.2542 175.23 43.8849C175.049 44.5157 175.139 45.1464 175.32 45.8672C175.41 46.0474 175.41 46.1375 175.5 46.3177C175.5 46.4078 175.5 46.4979 175.59 46.588C175.68 46.9484 175.95 47.5792 176.13 47.9396C176.491 48.6604 176.941 49.0208 177.572 49.5614C178.202 50.0119 178.923 50.4624 179.644 50.5525C180.094 50.6426 180.725 50.7328 181.175 50.7328C181.265 50.7328 181.355 50.7328 181.446 50.7328C182.166 50.7328 182.887 50.6427 183.517 50.2822C184.148 50.102 184.779 49.6515 185.229 49.201C186.22 48.1198 186.761 46.8583 186.761 45.4167C186.761 44.9662 186.761 44.5157 186.761 43.975C186.851 42.6235 186.22 41.0917 185.229 40.1907Z" fill="#F1E892"></path></svg>