<svg xmlns="http://www.w3.org/2000/svg" width="300" height="120" viewBox="0 0 300 120" fill="none"><path d="M28.2696 59.7058C25.1934 59.9234 22.2226 59.3718 19.3572 58.0507C16.4889 56.6898 14.1763 54.7684 12.4195 52.2863C12.0654 51.75 11.8622 51.1027 11.8098 50.3446C11.7243 49.1077 11.9525 48.1091 12.4944 47.349C13.0758 46.5861 13.8792 46.1684 14.9046 46.0959C15.7723 46.0345 16.534 46.161 17.1898 46.4755C17.8457 46.7899 18.4378 47.3296 18.9662 48.0941C19.8039 49.3179 21.0403 50.2931 22.6759 51.0194C24.3478 51.7031 26.0319 51.9849 27.7277 51.8649C33.407 51.4631 36.1085 49.2671 35.8328 45.2769C35.7142 43.5611 34.8969 42.0551 33.3805 40.7589C31.9037 39.4599 29.5971 38.1997 26.4611 36.978C22.7564 35.556 19.8515 34.2378 17.7463 33.0235C15.6778 31.7663 14.156 30.3904 13.1808 28.8957C12.2028 27.3609 11.6394 25.5162 11.4905 23.3614C11.3195 20.8874 11.8186 18.6468 12.9877 16.6394C14.154 14.5921 15.8437 12.9488 18.0566 11.7096C20.2668 10.4305 22.7917 9.69053 25.6314 9.48962C28.7864 9.2664 31.7348 9.77956 34.4765 11.0291C37.2154 12.2388 39.3592 14.0118 40.9077 16.3482C41.3462 16.9587 41.5889 17.6032 41.6357 18.2815C41.702 19.2392 41.4444 20.0995 40.863 20.8624C40.3211 21.6224 39.5966 22.0347 38.6894 22.0987C38.0189 22.1462 37.3164 22.0154 36.5817 21.7066C35.8443 21.3577 35.2589 20.9179 34.826 20.3873C33.8306 19.1746 32.6221 18.3178 31.2004 17.8168C29.8181 17.3132 28.1411 17.1311 26.1691 17.2706C23.8422 17.4353 22.0387 18.0039 20.7585 18.9766C19.5149 19.9068 18.9496 21.1897 19.0626 22.8258C19.1317 23.8234 19.4261 24.6445 19.9464 25.2893C20.5031 25.8916 21.3965 26.49 22.6267 27.0845C23.8961 27.6764 25.9553 28.5131 28.8042 29.5947C33.7729 31.5288 37.3879 33.6588 39.6492 35.9848C41.9498 38.3081 43.2215 41.2255 43.4641 44.7369C43.6544 47.4902 43.1523 49.9717 41.9575 52.1813C40.7599 54.3512 38.9786 56.1012 36.6135 57.4313C34.2454 58.7217 31.4643 59.4798 28.2696 59.7058ZM73.9654 50.2175C75.0944 50.4987 75.9121 50.8617 76.4184 51.3071C76.9644 51.7497 77.2661 52.3899 77.324 53.2278C77.3931 54.2254 77.017 55.0941 76.1964 55.8337C75.4178 56.6107 74.4369 57.0409 73.2538 57.1246C71.4791 57.2502 69.9037 56.8204 68.5277 55.8349C67.1912 54.8469 66.344 53.4835 65.9861 51.7444C65.5942 50.088 65.3085 47.9631 65.1294 45.3694C65.0217 43.8132 64.9588 42.6147 64.9403 41.7739C63.5812 42.7523 61.7291 43.7654 59.384 44.8135C57.1122 45.7761 55.5069 46.6317 54.5678 47.3797C53.6681 48.1249 53.2487 48.9365 53.3094 49.8145C53.3451 50.3331 53.591 50.7367 54.047 51.0252C54.5421 51.3111 55.1251 51.4302 55.7955 51.3828C56.2689 51.3492 56.7761 51.2333 57.3172 51.0346C57.895 50.7932 58.3685 50.4791 58.7381 50.0919C59.2516 49.4942 59.9817 49.1619 60.9283 49.095C61.9143 49.0251 62.725 49.2886 63.3608 49.8852C63.9965 50.4817 64.3474 51.2589 64.4135 52.2166C64.4411 52.6156 64.356 53.1028 64.1578 53.6781C63.9965 54.2109 63.789 54.6466 63.5348 54.9854C62.0109 57.0178 59.5924 58.1513 56.2795 58.3857C53.5583 58.5782 51.3001 58.0161 49.5049 56.6997C47.707 55.3433 46.7268 53.4879 46.5641 51.1338C46.2083 45.9863 49.9677 41.8909 57.8421 38.8477C60.2716 37.8739 62.0728 36.9847 63.2458 36.18C64.416 35.3352 64.9933 34.5125 64.9774 33.7117C64.8801 32.8765 64.3811 32.2502 63.4804 31.8328C62.5769 31.3754 61.3956 31.1984 59.9362 31.3017C56.8996 31.5164 54.9021 32.7203 53.9439 34.9133C53.6699 35.5341 53.2508 36.0651 52.6867 36.5059C52.1594 36.9041 51.5802 37.1255 50.9493 37.1702C49.9633 37.2399 49.0919 36.9607 48.3351 36.3326C47.5755 35.6647 47.1613 34.8318 47.0924 33.8344C46.9903 32.3578 47.5064 30.9379 48.6409 29.5745C49.7725 28.1712 51.3163 26.9995 53.2726 26.0592C55.2288 25.1188 57.2915 24.5719 59.4606 24.4184C63.2073 24.1534 66.1455 24.8075 68.2755 26.3811C70.4055 27.9545 71.5808 30.3374 71.8014 33.5296L71.8469 34.188C72.1122 41.4671 72.2779 45.5854 72.344 46.5431C72.3881 47.1815 72.5195 47.934 72.7378 48.8008C72.7994 49.1172 72.9595 49.4266 73.2182 49.7291C73.5135 49.9888 73.7626 50.1517 73.9654 50.2175ZM103.148 21.5081C104.134 21.4382 104.987 21.7387 105.707 22.4097C106.467 23.0776 106.879 23.8904 106.946 24.8481C106.976 25.287 106.892 25.7942 106.694 26.3696L95.8574 54.5029C95.552 55.2462 95.1356 55.8171 94.6084 56.2152C94.1233 56.6506 93.5652 56.8906 92.9341 56.9352C92.3031 56.9799 91.6979 56.8221 91.1181 56.4621C90.5383 56.1023 90.0449 55.5558 89.6374 54.8227L75.632 28.5071C75.3623 28.0449 75.2095 27.5545 75.1736 27.0358C75.1047 26.0382 75.382 25.1765 76.0056 24.4509C76.6291 23.7251 77.4536 23.3259 78.479 23.2534C79.1495 23.2059 79.7943 23.3608 80.4135 23.718C81.0299 24.0351 81.5193 24.5218 81.8817 25.1779L92.3132 45.3708L100.043 23.8929C100.312 23.1923 100.729 22.6415 101.296 22.2404C101.86 21.7996 102.477 21.5554 103.148 21.5081ZM135.464 41.9571C136.41 41.8901 137.18 42.1364 137.774 42.6958C138.407 43.2526 138.754 43.9698 138.814 44.8477C138.897 46.0447 138.665 46.9834 138.117 47.6637C136.805 49.3204 135.016 50.6698 132.75 51.7124C130.523 52.752 128.108 53.364 125.505 53.5482C122.35 53.7713 119.483 53.2925 116.905 52.1116C114.326 50.9307 112.245 49.1935 110.659 46.8997C109.111 44.5634 108.229 41.8389 108.014 38.7265C107.79 35.4944 108.299 32.5313 109.539 29.8371C110.817 27.1004 112.627 24.9072 114.97 23.2579C117.31 21.5686 119.96 20.6194 122.917 20.4101C125.56 20.2232 127.935 20.4761 130.044 21.1689C132.189 21.8192 133.906 22.8605 135.194 24.2931C136.479 25.6858 137.191 27.3796 137.329 29.3748C137.456 31.2102 136.997 32.8867 135.952 34.4042C134.908 35.9217 133.388 37.1518 131.392 38.0951C129.436 39.0353 127.156 39.5975 124.554 39.7818C120.807 40.0468 117.663 39.5675 115.121 38.3441L115.129 38.4637C115.311 41.0974 116.284 43.1337 118.048 44.5726C119.849 45.9688 122.169 46.5665 125.008 46.3657C126.783 46.2401 128.209 45.9388 129.286 45.4617C130.362 44.9845 131.442 44.2666 132.525 43.3077C133.498 42.477 134.478 42.0268 135.464 41.9571ZM123.414 27.5926C119.864 27.8437 117.447 29.2777 116.161 31.8948C118.509 33.1722 121.161 33.7064 124.119 33.4971C125.973 33.366 127.473 32.9991 128.621 32.3968C129.765 31.7545 130.311 31.0542 130.259 30.2959C130.195 29.3783 129.512 28.6648 128.209 28.1555C126.945 27.6434 125.346 27.4558 123.414 27.5926Z" fill="#F1E892"></path><path d="M95.538 105.923C95.8403 105.512 96.2244 105.178 96.6902 104.921C97.1957 104.663 97.6853 104.526 98.1595 104.509C99.1473 104.474 99.9894 104.805 100.686 105.501C101.421 106.155 101.805 106.982 101.84 107.981C101.873 108.941 101.567 109.812 100.921 110.595C99.1712 112.618 96.6787 114.328 93.4434 115.723C90.2067 117.078 86.9685 117.812 83.7287 117.927C79.0269 118.093 74.7437 117.204 70.8787 115.259C67.0139 113.314 63.9302 110.501 61.6274 106.82C59.3247 103.14 58.0891 98.8606 57.9208 93.9837C57.7537 89.1466 58.6914 84.7908 60.7333 80.9164C62.7754 77.042 65.657 73.9982 69.3784 71.7856C73.0982 69.5328 77.309 68.3234 82.0108 68.1572C85.2508 68.0428 88.5133 68.5879 91.7988 69.7927C95.0842 70.9973 97.6926 72.6462 99.6241 74.7394C100.324 75.5151 100.689 76.3627 100.721 77.2821C100.755 78.2815 100.429 79.1536 99.7429 79.8983C99.0552 80.603 98.2174 80.9728 97.2297 81.0078C96.7555 81.0245 96.2779 80.9412 95.7969 80.7581C95.316 80.5751 94.9309 80.3084 94.6419 79.9585C93.4478 78.5998 91.7109 77.5604 89.4311 76.8406C87.1514 76.1206 84.767 75.8045 82.2778 75.8926C78.88 76.0126 75.8814 76.8189 73.2826 78.3117C70.7217 79.763 68.7552 81.8137 67.383 84.4638C66.0489 87.0724 65.4433 90.1557 65.5661 93.7135C65.6875 97.2314 66.524 100.264 68.0756 102.81C69.6259 105.317 71.7288 107.224 74.3849 108.531C77.0395 109.798 80.0659 110.372 83.4637 110.252C86.1901 110.155 88.6668 109.708 90.8939 108.908C93.1213 108.109 94.6692 107.114 95.538 105.923ZM135.49 109.734C136.181 110.27 136.693 110.792 137.027 111.301C137.401 111.808 137.601 112.441 137.627 113.201C137.657 114.08 137.286 114.794 136.514 115.342C135.742 115.889 134.822 116.182 133.755 116.219C131.819 116.288 130.25 115.523 129.048 113.924C127.883 112.284 127.243 109.765 127.125 106.367L126.899 98.0905C126.83 96.0918 126.161 94.4744 124.892 93.2384C123.661 91.9611 122.137 91.3546 120.32 91.4187C116.052 91.5695 113.884 94.0677 113.814 98.913L114.211 113.848C114.245 114.848 113.918 115.7 113.231 116.404C112.584 117.148 111.766 117.537 110.779 117.572C109.791 117.607 108.929 117.277 108.193 116.582C107.498 115.926 107.133 115.099 107.098 114.099C106.981 110.701 106.808 104.544 106.58 95.6264C106.391 86.7078 106.25 79.2081 106.159 73.1277C106.086 71.009 105.643 69.6438 104.831 69.032C104.14 68.496 103.608 67.9745 103.234 67.4674C102.9 66.9589 102.72 66.3249 102.694 65.5654C102.664 64.6858 103.035 63.9724 103.807 63.4248C104.579 62.8772 105.499 62.5846 106.565 62.5468C108.541 62.477 110.112 63.3021 111.279 65.0218C112.484 66.7004 113.128 69.3192 113.212 72.8785L113.527 87.156C115.413 85.6484 117.601 84.8508 120.09 84.7627C122.619 84.6734 124.927 85.0922 127.017 86.019C129.106 86.9458 130.753 88.2685 131.96 89.9868C133.206 91.7038 133.866 93.6418 133.941 95.8004L134.237 106.116C134.301 107.955 134.718 109.161 135.49 109.734ZM144.884 76.8025C143.659 76.8457 142.598 76.463 141.699 75.6542C140.839 74.8041 140.389 73.7794 140.347 72.5801C140.306 71.3808 140.686 70.3468 141.486 69.4779C142.325 68.5678 143.357 68.091 144.582 68.0478C145.767 68.0059 146.789 68.3901 147.648 69.2003C148.507 70.0105 148.957 71.0351 149 72.2744C149.041 73.4737 148.643 74.5283 147.804 75.4385C147.003 76.3073 146.03 76.7621 144.884 76.8025ZM146.757 115.58C145.927 115.609 145.146 115.337 144.414 114.762C143.681 114.148 143.297 113.341 143.262 112.341L142.948 94.6417C142.954 92.5202 142.571 91.1529 141.798 90.5398C141.108 90.0438 140.577 89.5422 140.203 89.0352C139.869 88.5267 139.669 87.8933 139.603 87.1352C139.573 86.2558 139.944 85.5422 140.716 84.9946C141.527 84.4057 142.485 84.0916 143.592 84.0526C145.567 83.9827 147.118 84.7885 148.244 86.4697C149.41 88.1495 150.014 90.7498 150.056 94.2704C150.144 102.552 150.25 108.492 150.374 112.09C150.412 113.169 150.046 114.023 149.276 114.65C148.505 115.238 147.665 115.548 146.757 115.58ZM163.641 104.597C163.713 106.676 164.136 108.042 164.91 108.695C165.642 109.269 166.175 109.811 166.509 110.319C166.881 110.786 167.08 111.4 167.106 112.159C167.137 113.039 166.766 113.752 165.993 114.3C165.221 114.848 164.302 115.14 163.235 115.178C161.259 115.248 159.649 114.444 158.405 112.767C157.198 111.049 156.533 108.41 156.41 104.852C155.749 79.9408 155.43 66.704 155.455 65.142C155.487 63.7802 155.789 62.7688 156.359 62.1083C156.968 61.4065 157.766 61.038 158.754 61.0031C159.821 60.9655 160.704 61.3345 161.403 62.1102C162.142 62.8846 162.53 63.8114 162.567 64.8909L163.641 104.597ZM202.627 107.362C203.32 107.898 203.831 108.42 204.166 108.929C204.539 109.436 204.739 110.069 204.766 110.829C204.795 111.708 204.424 112.422 203.653 112.969C202.88 113.517 201.961 113.81 200.893 113.847C198.602 113.928 196.864 112.869 195.68 110.669C194.419 111.915 192.928 112.868 191.21 113.529C189.534 114.229 187.688 114.614 185.672 114.685C182.512 114.797 179.644 114.218 177.068 112.948C174.532 111.677 172.51 109.827 171.002 107.399C169.533 104.969 168.743 102.135 168.632 98.8975C168.523 95.7394 169.135 92.856 170.469 90.2472C171.843 87.6371 173.749 85.5687 176.189 84.0415C178.667 82.473 181.446 81.6344 184.528 81.5255C188.006 81.4027 191.082 82.3345 193.763 84.3212C193.542 74.483 193.357 67.4052 193.209 63.0877C193.174 62.0884 193.481 61.2371 194.128 60.5337C194.777 59.8304 195.575 59.462 196.523 59.4284C197.63 59.3894 198.53 59.6977 199.226 60.3537C199.918 60.9695 200.285 61.7972 200.32 62.8366L200.975 88.6892L201.359 103.264C201.347 104.065 201.434 104.863 201.619 105.657C201.844 106.449 202.181 107.018 202.627 107.362ZM185.424 107.49C188.072 107.396 190.177 106.501 191.74 104.805C193.303 103.109 194.037 100.841 193.938 98.0033C193.843 95.2449 192.935 92.9956 191.213 91.2554C189.492 89.5151 187.367 88.6897 184.838 88.779C183.099 88.8404 181.514 89.3167 180.08 90.2079C178.687 91.0977 177.602 92.2966 176.822 93.8051C176.082 95.2721 175.742 96.9051 175.805 98.7041C175.901 101.502 176.827 103.691 178.584 105.27C180.338 106.849 182.62 107.589 185.424 107.49ZM221.811 80.7485C223.47 80.69 225.005 80.996 226.413 81.6667C227.86 82.3359 229.001 83.2962 229.835 84.5476C230.668 85.7589 231.112 87.144 231.166 88.7031C231.23 90.582 230.754 92.2599 229.737 93.7366C228.718 95.1734 227.334 96.3231 225.582 97.1854C224.956 97.3677 224.505 97.4637 224.229 97.4734C223.24 97.5083 222.38 97.1986 221.644 96.5441C220.908 95.8497 220.523 95.0028 220.489 94.0034C220.463 93.2437 220.636 92.5572 221.011 91.9437C221.424 91.2886 221.962 90.8294 222.624 90.5658C222.975 90.3934 223.303 90.1415 223.608 89.8107C223.913 89.4796 224.062 89.1943 224.053 88.9544C224.037 88.5147 223.807 88.1225 223.36 87.7783C222.952 87.4324 222.511 87.2679 222.037 87.2847L215.932 87.5003C216.289 88.6883 216.49 89.9021 216.534 91.1413C216.575 93.5012 216.605 96.6821 216.624 100.684C216.645 104.686 216.652 107.767 216.647 109.929C216.603 110.931 216.256 111.784 215.609 112.487C214.962 113.23 214.163 113.619 213.216 113.652C212.227 113.687 211.366 113.357 210.63 112.663C209.934 111.967 209.569 111.139 209.536 110.18L209.47 103.098C209.489 96.7735 209.47 92.7918 209.412 91.1527C209.346 89.2338 208.749 87.9741 207.621 87.3736C207.017 87.0748 206.567 86.6704 206.274 86.1605C206.018 85.6092 205.878 85.0338 205.857 84.4341C205.824 83.4348 206.114 82.664 206.728 82.122C207.34 81.54 208.16 81.2308 209.187 81.1947L221.811 80.7485ZM260.089 101.85C261.038 101.816 261.799 102.09 262.373 102.67C262.987 103.248 263.307 103.978 263.339 104.857C263.379 106.056 263.116 106.986 262.543 107.647C261.176 109.256 259.341 110.542 257.041 111.503C254.778 112.464 252.345 112.99 249.736 113.082C246.575 113.194 243.727 112.614 241.191 111.343C238.655 110.072 236.635 108.262 235.13 105.914C233.661 103.524 232.875 100.77 232.767 97.652C232.655 94.4139 233.266 91.4705 234.598 88.8219C235.969 86.132 237.855 84.0041 240.253 82.4384C242.651 80.8327 245.33 79.9777 248.293 79.8729C250.941 79.7794 253.306 80.1161 255.391 80.883C257.511 81.6085 259.191 82.7098 260.43 84.1871C261.666 85.6243 262.318 87.3424 262.386 89.3411C262.451 91.1799 261.935 92.8392 260.838 94.3188C259.742 95.7985 258.181 96.9743 256.153 97.8464C254.166 98.7171 251.869 99.1985 249.262 99.2907C245.508 99.4232 242.381 98.8332 239.883 97.5207L239.888 97.6407C239.979 100.279 240.881 102.348 242.593 103.849C244.346 105.308 246.643 105.987 249.488 105.887C251.266 105.824 252.701 105.573 253.795 105.134C254.887 104.695 255.991 104.016 257.107 103.096C258.106 102.3 259.102 101.885 260.089 101.85ZM248.543 87.0685C244.987 87.1941 242.52 88.542 241.146 91.1121C243.448 92.4717 246.08 93.0992 249.043 92.9945C250.901 92.9289 252.413 92.6153 253.58 92.0538C254.745 91.4522 255.316 90.7715 255.289 90.012C255.258 89.0926 254.599 88.3555 253.315 87.8005C252.07 87.2441 250.479 87.0002 248.543 87.0685ZM296.714 104.038C297.405 104.574 297.917 105.096 298.252 105.605C298.625 106.112 298.826 106.745 298.852 107.504C298.882 108.384 298.51 109.097 297.739 109.645C296.967 110.193 296.048 110.485 294.98 110.523C293.044 110.591 291.474 109.826 290.273 108.228C289.107 106.588 288.467 104.069 288.35 100.671L288.124 92.3942C288.054 90.3953 287.386 88.778 286.116 87.5421C284.887 86.2648 283.362 85.6581 281.545 85.7224C277.158 85.8773 275.014 88.5346 275.114 93.6942L275.112 93.6344C275.147 99.2365 275.225 103.796 275.348 107.314C275.388 108.514 275.065 109.446 274.376 110.11C273.685 110.735 272.906 111.063 272.035 111.094C271.127 111.126 270.267 110.836 269.454 110.224C268.681 109.611 268.275 108.725 268.235 107.566C268.102 103.728 268.003 97.9481 267.933 90.2257C267.858 88.0671 267.455 86.7005 266.724 86.126C266.032 85.59 265.5 85.0685 265.127 84.5614C264.793 84.053 264.612 83.4189 264.586 82.6594C264.556 81.7798 264.928 81.0664 265.699 80.5188C266.471 79.9712 267.391 79.6784 268.458 79.6408C270.75 79.5598 272.445 80.5606 273.546 82.643C274.498 81.5688 275.635 80.7281 276.959 80.1208C278.321 79.4723 279.774 79.121 281.314 79.0664C283.843 78.9771 286.153 79.3959 288.241 80.3227C290.33 81.2495 291.978 82.572 293.185 84.2905C294.431 86.0075 295.09 87.9454 295.165 90.1041C295.292 93.782 295.387 97.0606 295.446 99.9403C295.519 102.059 295.941 103.425 296.714 104.038Z" fill="white"></path><path d="M10.6584 98.9078L10.894 105.733C10.9349 106.918 11.5996 107.668 12.8879 107.983C13.3525 108.094 13.7482 108.334 14.0752 108.704C14.4021 109.074 14.5732 109.481 14.5885 109.925C14.6053 110.412 14.4209 110.832 14.0351 111.184C13.6703 111.536 13.2264 111.721 12.7035 111.74C10.9673 111.801 9.62152 111.34 8.66609 110.357C7.71066 109.374 7.19899 107.898 7.13105 105.93L6.89328 99.0409L6.10889 99.0686C5.58595 99.0871 5.13002 98.923 4.74108 98.5766C4.37233 98.2081 4.17883 97.7595 4.16056 97.2303C4.1423 96.7012 4.30477 96.2505 4.64794 95.8782C5.01131 95.4839 5.45447 95.2777 5.9774 95.2591L6.76181 95.2314L6.5865 90.1522C6.56824 89.623 6.73069 89.1723 7.07388 88.8C7.43724 88.4057 7.88039 88.1994 8.40333 88.1809C8.92627 88.1625 9.3721 88.3374 9.74086 88.7057C10.1298 89.0523 10.3334 89.4901 10.3516 90.0192L10.5269 95.0984L12.9743 95.0119C13.4972 94.9935 13.9431 95.1684 14.3118 95.5367C14.7007 95.8833 14.9043 96.3211 14.9226 96.8502C14.9409 97.3792 14.7683 97.8409 14.405 98.2351C14.0618 98.6075 13.6287 98.8028 13.1058 98.8214L10.6584 98.9078ZM30.8191 107.477C31.1849 107.76 31.4563 108.037 31.6331 108.306C31.8309 108.574 31.9366 108.91 31.9506 109.312C31.9666 109.777 31.7702 110.155 31.3614 110.445C30.9526 110.735 30.4658 110.89 29.901 110.91C28.8759 110.946 28.0452 110.541 27.4087 109.695C26.7923 108.827 26.4531 107.493 26.391 105.694L26.2712 101.312C26.2347 100.254 25.8805 99.3977 25.2086 98.7434C24.557 98.0671 23.7501 97.7461 22.7878 97.78C20.5288 97.8598 19.3807 99.1824 19.3436 101.748L19.5537 109.654C19.5719 110.183 19.399 110.635 19.0349 111.008C18.6925 111.401 18.2598 111.607 17.7368 111.626C17.2139 111.644 16.7576 111.47 16.3679 111.102C15.9999 110.755 15.8068 110.316 15.7885 109.787C15.7264 107.988 15.6349 104.729 15.5138 100.008C15.4137 95.2859 15.3395 91.3155 15.2912 88.0965C15.2525 86.9749 15.0181 86.2521 14.5881 85.9282C14.2222 85.6445 13.9404 85.3685 13.7427 85.0999C13.5658 84.8308 13.4705 84.4951 13.4566 84.093C13.4405 83.6274 13.6369 83.2496 14.0458 82.9597C14.4546 82.6697 14.9415 82.5148 15.5062 82.4948C16.5521 82.4579 17.384 82.8947 18.0018 83.8053C18.6398 84.6938 18.9809 86.0804 19.025 87.9645L19.1916 95.5233C20.1902 94.7251 21.3485 94.3028 22.6663 94.2562C24.0049 94.209 25.2273 94.4308 26.3333 94.9214C27.4392 95.412 28.3117 96.1122 28.9504 97.0221C29.6101 97.9311 29.9596 98.9569 29.999 100.1L30.1562 105.561C30.1898 106.535 30.4108 107.173 30.8191 107.477ZM45.2885 105.122C45.7907 105.104 46.1936 105.249 46.4973 105.556C46.822 105.862 46.9924 106.248 47.0085 106.714C47.0305 107.349 46.8904 107.841 46.5883 108.191C45.8638 109.043 44.8924 109.723 43.6743 110.232C42.4773 110.741 41.1883 111.02 39.8078 111.068C38.1344 111.128 36.6264 110.82 35.2837 110.148C33.941 109.475 32.8713 108.516 32.0746 107.273C31.2979 106.008 30.881 104.55 30.824 102.899C30.7649 101.185 31.0881 99.6269 31.7936 98.2247C32.5194 96.8006 33.5172 95.674 34.787 94.8451C36.0562 93.9951 37.4751 93.5424 39.044 93.487C40.4455 93.4374 41.6976 93.6157 42.8006 94.0217C43.9239 94.4057 44.8133 94.9888 45.4685 95.7709C46.123 96.5318 46.4687 97.4414 46.5051 98.4995C46.5388 99.4731 46.2653 100.351 45.685 101.135C45.1047 101.918 44.278 102.541 43.2049 103.002C42.1527 103.463 40.9365 103.718 39.5558 103.767C37.5686 103.837 35.9139 103.525 34.5915 102.83L34.5935 102.893C34.6419 104.29 35.1194 105.386 36.0264 106.18C36.9536 106.952 38.1703 107.312 39.6763 107.259C40.6176 107.226 41.3774 107.093 41.9559 106.86C42.5343 106.628 43.1188 106.268 43.7092 105.782C44.2392 105.36 44.7656 105.14 45.2885 105.122ZM39.1753 97.2965C37.2928 97.3628 35.9877 98.0765 35.2596 99.4371C36.4783 100.157 37.8719 100.489 39.4408 100.434C40.4238 100.399 41.2244 100.233 41.8426 99.9356C42.4598 99.6171 42.7616 99.2569 42.7476 98.8547C42.7309 98.368 42.3822 97.9777 41.702 97.6838C41.0425 97.3893 40.2004 97.2601 39.1753 97.2965Z" fill="white"></path></svg>